<svg xmlns="http://www.w3.org/2000/svg" width="28.621" height="27.906" viewBox="0 0 28.621 27.906">
  <defs>
    <style>
      .cls-1 {
        fill: #edf3f3;
      }
    </style>
  </defs>
  <path id="github" class="cls-1" d="M9.573,23.033c0,.115-.133.208-.3.208-.19.017-.323-.075-.323-.208,0-.115.133-.208.3-.208C9.423,22.808,9.573,22.9,9.573,23.033Zm-1.795-.26c-.04.115.075.248.248.283a.271.271,0,0,0,.358-.115c.035-.115-.075-.248-.248-.3A.3.3,0,0,0,7.779,22.773Zm2.551-.1c-.167.04-.283.15-.265.283.017.115.167.19.34.15s.283-.15.265-.265S10.5,22.658,10.329,22.675ZM14.126.563A13.837,13.837,0,0,0,0,14.642a14.467,14.467,0,0,0,9.781,13.8c.739.133,1-.323,1-.7,0-.358-.017-2.331-.017-3.543,0,0-4.039.866-4.888-1.72,0,0-.658-1.679-1.6-2.112,0,0-1.321-.906.092-.889A3.046,3.046,0,0,1,6.59,20.973,3.05,3.05,0,0,0,10.8,22.179a3.207,3.207,0,0,1,.923-1.945c-3.226-.358-6.48-.825-6.48-6.376a4.373,4.373,0,0,1,1.362-3.4,5.452,5.452,0,0,1,.15-3.918C7.957,6.166,10.733,8.1,10.733,8.1a13.632,13.632,0,0,1,7.248,0s2.776-1.939,3.982-1.558a5.449,5.449,0,0,1,.15,3.918,4.486,4.486,0,0,1,1.489,3.4c0,5.568-3.4,6.013-6.624,6.376a3.413,3.413,0,0,1,.981,2.677c0,1.945-.017,4.351-.017,4.824,0,.375.265.831,1,.7a14.334,14.334,0,0,0,9.683-13.791A14.149,14.149,0,0,0,14.126.563Zm-8.517,19.9c-.075.058-.058.19.04.3.092.092.225.133.3.058.075-.058.058-.19-.04-.3C5.817,20.43,5.684,20.39,5.609,20.465ZM4.986,20c-.04.075.017.167.133.225a.172.172,0,0,0,.248-.04c.04-.075-.017-.167-.133-.225C5.118,19.922,5.026,19.94,4.986,20Zm1.87,2.054c-.092.075-.058.248.075.358.133.133.3.15.375.058.075-.075.04-.248-.075-.358C7.1,21.977,6.93,21.959,6.855,22.052ZM6.2,21.2c-.092.058-.092.208,0,.34s.248.19.323.133a.263.263,0,0,0,0-.358C6.44,21.186,6.29,21.128,6.2,21.2Z" transform="translate(0 -0.563)"/>
</svg>
