<svg xmlns="http://www.w3.org/2000/svg" width="25.852" height="25.852" viewBox="0 0 25.852 25.852">
  <defs>
    <style>
      .cls-1 {
        fill: #edf3f3;
      }
    </style>
  </defs>
  <path id="in" class="cls-1" d="M24.005,2.25H1.841A1.855,1.855,0,0,0,0,4.114V26.238A1.855,1.855,0,0,0,1.841,28.1H24.005a1.859,1.859,0,0,0,1.847-1.864V4.114A1.859,1.859,0,0,0,24.005,2.25ZM7.813,24.409H3.982V12.071H7.819V24.409ZM5.9,10.386A2.222,2.222,0,1,1,8.119,8.165,2.223,2.223,0,0,1,5.9,10.386ZM22.176,24.409H18.344v-6c0-1.431-.029-3.272-1.991-3.272-2,0-2.3,1.558-2.3,3.168v6.105H10.219V12.071H13.9v1.685h.052a4.036,4.036,0,0,1,3.63-1.991c3.878,0,4.6,2.556,4.6,5.88Z" transform="translate(0 -2.25)"/>
</svg>
