<svg xmlns="http://www.w3.org/2000/svg" xmlns:xlink="http://www.w3.org/1999/xlink" width="1078.505" height="635.633" viewBox="0 0 1078.505 635.633">
  <defs>
    <style>
      .cls-1 {
        fill: url(#linear-gradient);
      }

      .cls-2 {
        fill: #3f3d56;
      }

      .cls-3 {
        fill: #075a5d;
      }

      .cls-4 {
        fill: url(#linear-gradient-2);
      }

      .cls-5 {
        fill: #e7effd;
      }

      .cls-6 {
        opacity: 0.3;
      }

      .cls-7 {
        opacity: 0.4;
      }

      .cls-8 {
        fill: url(#linear-gradient-3);
      }

      .cls-9 {
        fill: #65617d;
      }

      .cls-10 {
        opacity: 0.1;
      }

      .cls-11 {
        fill: #fbbebe;
      }

      .cls-12 {
        opacity: 0.2;
      }

      .cls-13 {
        fill: #d4dfec;
      }
    </style>
    <linearGradient id="linear-gradient" x1="0.5" y1="0.587" x2="0.5" y2="1" gradientUnits="objectBoundingBox">
      <stop offset="0" stop-color="#075a5d"/>
      <stop offset="0.669" stop-color="#f3f3f3"/>
      <stop offset="1" stop-color="#fff"/>
    </linearGradient>
    <linearGradient id="linear-gradient-2" x1="0.5" y1="1" x2="0.5" gradientUnits="objectBoundingBox">
      <stop offset="0.2" stop-color="gray" stop-opacity="0.4"/>
      <stop offset="0.46" stop-color="gray" stop-opacity="0.502"/>
      <stop offset="1" stop-opacity="0.6"/>
    </linearGradient>
    <linearGradient id="linear-gradient-3" x1="0.5" y1="1" x2="0.5" gradientUnits="objectBoundingBox">
      <stop offset="0" stop-color="gray" stop-opacity="0.251"/>
      <stop offset="0.54" stop-color="gray" stop-opacity="0.122"/>
      <stop offset="1" stop-color="gray" stop-opacity="0.102"/>
    </linearGradient>
  </defs>
  <g id="testworkingxs" transform="translate(-525.294 -104.558)">
    <path id="backgroundimg" class="cls-1" d="M639.308,125.729c22.277,15.862,63.142,25.954,164.169,109.3C879.248,308.275,977.75,376.469,977.75,376.469v363.7H538.281S230.536,670.681,113.966,639.14-208.228,522.1-32.524,376.469c65.668-68.193-72.46-82.5,12.628-202.261,78.7-126.184,291.163-14.481,410.728-33.144S518.075,78.438,639.308,125.729Z" transform="translate(626.049 0.024)"/>
    <g id="working" transform="translate(661 211)">
      <path id="Path_769" data-name="Path 769" class="cls-2" d="M588.18,605.131c0,21.517-118.443,100.752-266.366,100.752S57.45,621.445,57.45,599.928s116.44,28.025,264.364,28.025S588.18,583.595,588.18,605.131Z" transform="translate(-51.445 -342.979)"/>
      <path id="Path_770" data-name="Path 770" class="cls-3" d="M583.272,329.394v.863c-.325,8.942-5.305,17.836-14.393,24.116-9.641,6.653-22.569,10.155-35.842,12.39-2.076.349-4.161.664-6.241.97-1.062.145-2.119.291-3.171.427-29.548,3.88-59.716,4.622-89.744,5.334-31.41.776-62.849,1.542-94.293,1.94l-6.236.073c-47.709.514-95.4.082-142.933-2.624-14.752-.834-29.65-1.94-44.276-3.8q-3.128-.383-6.236-.839c-19.4-2.779-38.219-7.041-55.366-13.962a123.408,123.408,0,0,1-11.862-5.48c-10.771-5.717-19.854-12.948-24.349-21.823a30.61,30.61,0,0,1-3.1-16.837,39.386,39.386,0,0,1,1.081-6.241,55.614,55.614,0,0,1,6.125-14.408c7-11.842,17.521-22.458,26.59-33.578,19.359-23.7,31.968-53.645,14.1-77.936C88,171,80.586,164.885,76.411,157.587a32.841,32.841,0,0,1-4.093-12.812,46.1,46.1,0,0,1-.257-6.241,86.577,86.577,0,0,1,1.819-14.471c2.91-14.9,8.346-30.959,25.135-40.251,11.459-6.343,26.066-8.312,40.876-7.939q3.118.073,6.236.291c5.679.373,11.324,1.062,16.774,1.94,33.675,5.378,64.755,16.614,96.131,26.759,23.888,7.72,48.63,14.941,74.3,18.384,2.076.276,4.151.533,6.236.757,6.018.66,12.09,1.1,18.21,1.275,30.46.873,66-5.722,86.223-22.851,19.539-16.556,56.181-17.89,82.775-8l.4.15q3,1.144,5.819,2.464c19.6,9.214,32.724,24.994,34.577,41.507a36.04,36.04,0,0,1,.165,6.178.265.265,0,0,1,0,.063C566.468,165.1,549.864,182.164,533,199.254c-2.085,2.109-4.175,4.219-6.241,6.343a223.5,223.5,0,0,0-15.368,17.1,80.216,80.216,0,0,0-5.78,8.293,53.556,53.556,0,0,0-4.108,8.351,34.727,34.727,0,0,0-2.265,9.359,24.474,24.474,0,0,0,2.425,13.384l.044.1c4.5,8.923,14.025,15.247,25.052,20.853,2.032,1.038,4.122,2.046,6.241,3.045,11.959,5.645,24.844,10.887,34.64,17.856A51.933,51.933,0,0,1,575,310.141a37.543,37.543,0,0,1,2.6,2.992,26.254,26.254,0,0,1,5.664,15.853C583.272,329.132,583.272,329.263,583.272,329.394Z" transform="translate(-45.067 -75.83)"/>
      <path id="Path_771" data-name="Path 771" class="cls-4" d="M583.272,329.394v.863c-.325,8.942-5.305,17.836-14.393,24.116-9.641,6.653-22.569,10.155-35.842,12.39-2.076.349-4.161.664-6.241.97-1.062.145-2.119.291-3.171.427-29.548,3.88-59.716,4.622-89.744,5.334-31.41.776-62.849,1.542-94.293,1.94l-6.236.073c-47.709.514-95.4.082-142.933-2.624-14.752-.834-29.65-1.94-44.276-3.8q-3.128-.383-6.236-.839c-19.4-2.779-38.219-7.041-55.366-13.962a123.408,123.408,0,0,1-11.862-5.48c-10.771-5.717-19.854-12.948-24.349-21.823a30.61,30.61,0,0,1-3.1-16.837,39.386,39.386,0,0,1,1.081-6.241,55.614,55.614,0,0,1,6.125-14.408c7-11.842,17.521-22.458,26.59-33.578,19.359-23.7,31.968-53.645,14.1-77.936C88,171,80.586,164.885,76.411,157.587a32.841,32.841,0,0,1-4.093-12.812,46.1,46.1,0,0,1-.257-6.241,86.577,86.577,0,0,1,1.819-14.471c2.91-14.9,8.346-30.959,25.135-40.251,11.459-6.343,26.066-8.312,40.876-7.939q3.118.073,6.236.291c5.679.373,11.324,1.062,16.774,1.94,33.675,5.378,64.755,16.614,96.131,26.759,23.888,7.72,48.63,14.941,74.3,18.384,2.076.276,4.151.533,6.236.757,6.018.66,12.09,1.1,18.21,1.275,30.46.873,66-5.722,86.223-22.851,19.539-16.556,56.181-17.89,82.775-8l.4.15q3,1.144,5.819,2.464c19.6,9.214,32.724,24.994,34.577,41.507a36.04,36.04,0,0,1,.165,6.178.265.265,0,0,1,0,.063C566.468,165.1,549.864,182.164,533,199.254c-2.085,2.109-4.175,4.219-6.241,6.343a223.5,223.5,0,0,0-15.368,17.1,80.216,80.216,0,0,0-5.78,8.293,53.556,53.556,0,0,0-4.108,8.351,34.727,34.727,0,0,0-2.265,9.359,24.474,24.474,0,0,0,2.425,13.384l.044.1c4.5,8.923,14.025,15.247,25.052,20.853,2.032,1.038,4.122,2.046,6.241,3.045,11.959,5.645,24.844,10.887,34.64,17.856A51.933,51.933,0,0,1,575,310.141a37.543,37.543,0,0,1,2.6,2.992,26.254,26.254,0,0,1,5.664,15.853C583.272,329.132,583.272,329.263,583.272,329.394Z" transform="translate(-45.067 -75.83)"/>
      <path id="Path_772" data-name="Path 772" class="cls-2" d="M1044.641,116.794V219c-2.085,2.114-4.175,4.224-6.241,6.348V114.18Z" transform="translate(-556.687 -95.582)"/>
      <path id="Path_773" data-name="Path 773" class="cls-2" d="M596.415,211.338a.266.266,0,0,1,0,.063H100.97a46.174,46.174,0,0,1-.257-6.241H596.25a36.009,36.009,0,0,1,.165,6.178Z" transform="translate(-73.719 -142.442)"/>
      <circle id="Ellipse_181" data-name="Ellipse 181" class="cls-5" cx="1.819" cy="1.819" r="1.819" transform="translate(115.229 33.005)"/>
      <circle id="Ellipse_182" data-name="Ellipse 182" class="cls-5" cx="1.819" cy="1.819" r="1.819" transform="translate(56.987 29.364)"/>
      <circle id="Ellipse_183" data-name="Ellipse 183" class="cls-5" cx="0.781" cy="0.781" r="0.781" transform="translate(136.81 34.043)"/>
      <circle id="Ellipse_184" data-name="Ellipse 184" class="cls-5" cx="0.781" cy="0.781" r="0.781" transform="translate(78.306 32.225)"/>
      <circle id="Ellipse_185" data-name="Ellipse 185" class="cls-5" cx="0.781" cy="0.781" r="0.781" transform="translate(77.53 86.757)"/>
      <circle id="Ellipse_186" data-name="Ellipse 186" class="cls-5" cx="0.781" cy="0.781" r="0.781" transform="translate(437.636 45.546)"/>
      <circle id="Ellipse_187" data-name="Ellipse 187" class="cls-5" cx="0.781" cy="0.781" r="0.781" transform="translate(173.21 46.264)"/>
      <circle id="Ellipse_188" data-name="Ellipse 188" class="cls-5" cx="0.781" cy="0.781" r="0.781" transform="translate(399.156 44.702)"/>
      <circle id="Ellipse_189" data-name="Ellipse 189" class="cls-5" cx="0.781" cy="0.781" r="0.781" transform="translate(497.44 47.045)"/>
      <path id="Path_774" data-name="Path 774" class="cls-3" d="M612.6,480.212v.863c-.247,9.01-5.238,18-14.393,24.32-9.641,6.654-22.569,10.155-35.842,12.39-2.076.349-4.161.664-6.241.97-1.062.145-2.119.291-3.172.427-7.274.97-14.587,1.712-21.924,2.333-9.844.834-19.737,1.411-29.64,1.838-12.715.558-25.455.873-38.18,1.188-24.873.611-49.765,1.222-74.682,1.644l-8.841.145-10.785.146-6.236.073c-39.281.417-78.5.2-117.658-1.4q-3.909-.155-7.8-.34-8.729-.383-17.458-.887c-11.663-.659-23.418-1.494-35.047-2.73q-4.626-.485-9.214-1.072-3.128-.383-6.236-.839-3.463-.485-6.9-1.057c-16.973-2.774-33.359-6.789-48.47-12.909A125.763,125.763,0,0,1,102,499.823v-85.35c2.153-2.5,4.292-4.995,6.348-7.522,2.473-3.036,4.849-6.164,7.032-9.374h46.943V368.65h82.683v63.6H379.68V381.811H535.057a54.313,54.313,0,0,0-4.069,8.074v.272h-.179a34.731,34.731,0,0,0-2.265,9.359,24.474,24.474,0,0,0,2.425,13.385v.2l.044.1c4.5,8.923,14.025,15.247,25.052,20.853,2.032,1.038,4.122,2.046,6.241,3.045,11.838,5.586,24.592,10.785,34.349,17.652l.291.2a52.192,52.192,0,0,1,7.182,6c.073.068.136.136.2.2a37.535,37.535,0,0,1,2.6,2.992A26.29,26.29,0,0,1,612.59,479.8C612.6,479.95,612.6,480.081,612.6,480.212Z" transform="translate(-74.391 -226.648)"/>
      <path id="Path_775" data-name="Path 775" class="cls-6" d="M612.6,480.212v.863c-.247,9.01-5.238,18-14.393,24.32-9.641,6.654-22.569,10.155-35.842,12.39-2.076.349-4.161.664-6.241.97-1.062.145-2.119.291-3.172.427-7.274.97-14.587,1.712-21.924,2.333-9.844.834-19.737,1.411-29.64,1.838-12.715.558-25.455.873-38.18,1.188-24.873.611-49.765,1.222-74.682,1.644l-8.841.145-10.785.146-6.236.073c-39.281.417-78.5.2-117.658-1.4q-3.909-.155-7.8-.34-8.729-.383-17.458-.887c-11.663-.659-23.418-1.494-35.047-2.73q-4.626-.485-9.214-1.072-3.128-.383-6.236-.839-3.463-.485-6.9-1.057c-16.973-2.774-33.359-6.789-48.47-12.909A125.763,125.763,0,0,1,102,499.823v-85.35c2.153-2.5,4.292-4.995,6.348-7.522,2.473-3.036,4.849-6.164,7.032-9.374h46.943V368.65h82.683v63.6H379.68V381.811H535.057a54.313,54.313,0,0,0-4.069,8.074v.272h-.179a34.731,34.731,0,0,0-2.265,9.359,24.474,24.474,0,0,0,2.425,13.385v.2l.044.1c4.5,8.923,14.025,15.247,25.052,20.853,2.032,1.038,4.122,2.046,6.241,3.045,11.838,5.586,24.592,10.785,34.349,17.652l.291.2a52.192,52.192,0,0,1,7.182,6c.073.068.136.136.2.2a37.535,37.535,0,0,1,2.6,2.992A26.29,26.29,0,0,1,612.59,479.8C612.6,479.95,612.6,480.081,612.6,480.212Z" transform="translate(-74.391 -226.648)"/>
      <rect id="Rectangle_357" data-name="Rectangle 357" class="cls-7" width="13.869" height="9.359" transform="translate(43.031 182.723)"/>
      <rect id="Rectangle_358" data-name="Rectangle 358" class="cls-7" width="13.869" height="9.359" transform="translate(65.222 182.723)"/>
      <rect id="Rectangle_359" data-name="Rectangle 359" class="cls-7" width="13.869" height="9.359" transform="translate(320.027 163.485)"/>
      <rect id="Rectangle_360" data-name="Rectangle 360" class="cls-7" width="13.869" height="9.359" transform="translate(357.47 163.485)"/>
      <rect id="Rectangle_361" data-name="Rectangle 361" class="cls-7" width="13.869" height="9.359" transform="translate(397.682 163.485)"/>
      <rect id="Rectangle_362" data-name="Rectangle 362" class="cls-7" width="13.869" height="9.359" transform="translate(320.027 192.087)"/>
      <rect id="Rectangle_363" data-name="Rectangle 363" class="cls-7" width="13.869" height="9.359" transform="translate(357.47 192.087)"/>
      <rect id="Rectangle_364" data-name="Rectangle 364" class="cls-3" width="13.869" height="9.359" transform="translate(397.682 192.087)"/>
      <rect id="Rectangle_365" data-name="Rectangle 365" class="cls-7" width="13.869" height="9.359" transform="translate(320.027 220.685)"/>
      <rect id="Rectangle_366" data-name="Rectangle 366" class="cls-7" width="13.869" height="9.359" transform="translate(357.47 220.685)"/>
      <rect id="Rectangle_367" data-name="Rectangle 367" class="cls-7" width="13.869" height="9.359" transform="translate(397.682 220.685)"/>
      <rect id="Rectangle_368" data-name="Rectangle 368" class="cls-7" width="13.869" height="9.359" transform="translate(320.027 249.287)"/>
      <rect id="Rectangle_369" data-name="Rectangle 369" class="cls-7" width="13.869" height="9.359" transform="translate(357.47 249.287)"/>
      <rect id="Rectangle_370" data-name="Rectangle 370" class="cls-7" width="13.869" height="9.359" transform="translate(397.682 249.287)"/>
      <rect id="Rectangle_371" data-name="Rectangle 371" class="cls-7" width="13.869" height="9.359" transform="translate(320.027 277.889)"/>
      <rect id="Rectangle_372" data-name="Rectangle 372" class="cls-7" width="13.869" height="9.359" transform="translate(357.47 277.889)"/>
      <rect id="Rectangle_373" data-name="Rectangle 373" class="cls-7" width="13.869" height="9.359" transform="translate(397.682 277.889)"/>
      <path id="Path_776" data-name="Path 776" class="cls-7" d="M975.793,413a34.732,34.732,0,0,0-2.265,9.36H965.92V413Z" transform="translate(-519.356 -249.491)"/>
      <rect id="Rectangle_374" data-name="Rectangle 374" class="cls-3" width="13.869" height="9.359" transform="translate(446.564 192.087)"/>
      <rect id="Rectangle_375" data-name="Rectangle 375" class="cls-7" width="13.869" height="9.359" transform="translate(446.564 220.685)"/>
      <rect id="Rectangle_376" data-name="Rectangle 376" class="cls-7" width="13.869" height="9.359" transform="translate(446.564 249.287)"/>
      <rect id="Rectangle_377" data-name="Rectangle 377" class="cls-7" width="13.869" height="9.359" transform="translate(446.564 277.889)"/>
      <rect id="Rectangle_378" data-name="Rectangle 378" class="cls-7" width="13.869" height="9.359" transform="translate(119.996 152.564)"/>
      <rect id="Rectangle_379" data-name="Rectangle 379" class="cls-3" width="13.869" height="9.359" transform="translate(119.996 173.548)"/>
      <rect id="Rectangle_380" data-name="Rectangle 380" class="cls-7" width="13.869" height="9.359" transform="translate(119.996 194.527)"/>
      <rect id="Rectangle_381" data-name="Rectangle 381" class="cls-7" width="13.869" height="9.359" transform="translate(119.996 215.51)"/>
      <rect id="Rectangle_382" data-name="Rectangle 382" class="cls-7" width="13.869" height="9.359" transform="translate(119.996 236.489)"/>
      <rect id="Rectangle_383" data-name="Rectangle 383" class="cls-7" width="13.869" height="9.359" transform="translate(119.996 257.473)"/>
      <rect id="Rectangle_384" data-name="Rectangle 384" class="cls-7" width="13.869" height="9.359" transform="translate(119.996 278.451)"/>
      <rect id="Rectangle_385" data-name="Rectangle 385" class="cls-7" width="13.869" height="9.359" transform="translate(43.031 207.184)"/>
      <rect id="Rectangle_386" data-name="Rectangle 386" class="cls-7" width="13.869" height="9.359" transform="translate(65.222 207.184)"/>
      <rect id="Rectangle_387" data-name="Rectangle 387" class="cls-7" width="13.869" height="9.359" transform="translate(43.031 231.644)"/>
      <rect id="Rectangle_388" data-name="Rectangle 388" class="cls-7" width="13.869" height="9.359" transform="translate(65.222 231.644)"/>
      <rect id="Rectangle_389" data-name="Rectangle 389" class="cls-7" width="13.869" height="9.359" transform="translate(43.031 256.105)"/>
      <rect id="Rectangle_390" data-name="Rectangle 390" class="cls-7" width="13.869" height="9.359" transform="translate(65.222 256.105)"/>
      <rect id="Rectangle_391" data-name="Rectangle 391" class="cls-7" width="69.338" height="8.365" transform="translate(198.344 216.504)"/>
      <rect id="Rectangle_392" data-name="Rectangle 392" class="cls-7" width="69.338" height="8.365" transform="translate(198.344 243.196)"/>
      <rect id="Rectangle_393" data-name="Rectangle 393" class="cls-7" width="69.338" height="8.365" transform="translate(198.344 269.892)"/>
      <path id="Path_777" data-name="Path 777" class="cls-2" d="M246.836,76.211V369.119q-3.128-.383-6.236-.839V75.92C242.68,75.959,244.756,76.065,246.836,76.211Z" transform="translate(-145.777 -75.876)"/>
      <path id="Path_778" data-name="Path 778" class="cls-2" d="M645.736,174.341v251.45l-6.236.073V173.58Q642.613,174,645.736,174.341Z" transform="translate(-351.232 -126.176)"/>
      <path id="Path_779" data-name="Path 779" class="cls-2" d="M575.17,552.371H45.39a39.385,39.385,0,0,1,1.081-6.241H567.828a51.349,51.349,0,0,1,7.342,6.241Z" transform="translate(-45.234 -318.06)"/>
      <path id="Path_780" data-name="Path 780" class="cls-2" d="M1038.4,503.06c2.032,1.038,4.122,2.046,6.241,3.045v80.7c-2.076.349-4.161.664-6.241.97Z" transform="translate(-556.687 -295.876)"/>
      <path id="Path_781" data-name="Path 781" class="cls-5" d="M334.569,228.543h-1.193V227.35h-.213v1.193H331.97v.213h1.193v1.193h.213v-1.193h1.193Z" transform="translate(-170.962 -117.097)"/>
      <path id="Path_782" data-name="Path 782" class="cls-5" d="M845.849,177.413h-1.193V176.22h-.218v1.193H843.25v.213h1.188v1.193h.218v-1.193h1.193Z" transform="translate(-434.298 -90.763)"/>
      <path id="Path_783" data-name="Path 783" class="cls-5" d="M392.839,167.463h-1.193V166.27h-.218v1.193H390.24v.218h1.188v1.188h.218v-1.188h1.193Z" transform="translate(-200.974 -85.638)"/>
      <circle id="Ellipse_190" data-name="Ellipse 190" class="cls-5" cx="0.781" cy="0.781" r="0.781" transform="translate(189.266 157.292)"/>
      <circle id="Ellipse_191" data-name="Ellipse 191" class="cls-5" cx="0.781" cy="0.781" r="0.781" transform="translate(367.324 87.538)"/>
      <circle id="Ellipse_192" data-name="Ellipse 192" class="cls-5" cx="0.781" cy="0.781" r="0.781" transform="translate(445.783 124.515)"/>
      <circle id="Ellipse_193" data-name="Ellipse 193" class="cls-5" cx="0.781" cy="0.781" r="0.781" transform="translate(322.908 131.212)"/>
      <path id="Path_784" data-name="Path 784" class="cls-8" d="M562.718,415.169s-16.638,4.025-23.224,11.556a22.407,22.407,0,0,1-8.86,5.625V420.989c3.807-6.392,7.643-13.5,7.643-13.5.175-.349,1.562-5.252,1.562-5.252,3.123-2.454-.175-11.028-.175-11.028s1.911-5.427.868-6.479-.175-3.85.693-5.077.693-2.8.693-3.851-1.387-2.628-3.642-3.5.175-2.274,1.561-2.628,1.736-3.676.175-5.427.175-2.8,1.038-4.723-2.788-1.576-2.788-1.576v-17.7h0s-1.043-5.776-2.08-15.93-5.029-11.2-5.029-11.2a45.677,45.677,0,0,1-6.241-2.454,42.748,42.748,0,0,0-6.586-2.449,33.9,33.9,0,0,1-8.5-1.174,25.957,25.957,0,0,0-5.8-1.256l-.626-.31a22.709,22.709,0,0,1-10.518-11.154c-.107-.243-.2-.485-.3-.718a24.473,24.473,0,0,0,2.769-3.676v2.027h0v.044c2.764-4.883,10.785-6,11.547-11.576a5.817,5.817,0,0,0,.053-.766v-.6c-.1-1.557-.635-3.109-.737-4.68a8.97,8.97,0,0,1,0-1.353v.029c.359-4.331,3.622-8.1,5.116-12.3a14.747,14.747,0,0,0,.781-3.5v-.034c.039-.359.063-.723.073-1.086V255.1a16.382,16.382,0,0,0-5.407-11.833c-2.764-2.4-6.416-3.909-8.331-7.046-.892-1.455-1.329-3.181-2.3-4.588-1.833-2.657-5.2-3.739-8.385-4.122s-6.46-.257-9.5-1.256c-2.163-.708-4.122-1.964-6.3-2.594A12.06,12.06,0,0,0,459,228.334c-1.149,1.678-1.9,3.686-3.453,4.995-3.176,2.687-8.564,1.523-11.348,4.617-1.528,1.7-1.7,4.02-1.518,6.387v.087a5.365,5.365,0,0,0,.053.548v.257a.8.8,0,0,0,.034.276c.1.849.218,1.692.325,2.507a3.261,3.261,0,0,0,.044.373l.087.761a5.313,5.313,0,0,0,.048.553c.019.184.034.485.048.689a4.791,4.791,0,0,0,.034.543,37.419,37.419,0,0,1-3.977,18.67c-2.624,5.145-6.523,9.888-7.2,15.635a16.852,16.852,0,0,0-.078,2.837v.335c0,.112.029.34.044.509s.039.393.063.587a2.638,2.638,0,0,0,.044.335c.034.257.073.514.116.776l.029.165c.689,3.918,2.25,7.759,3.079,11.716a31.7,31.7,0,0,1,.621,4.428.063.063,0,0,0,0,.029c.029.485.053.946.068,1.421v1.94a30.789,30.789,0,0,1-4.04,1.241c-2.425.349-9.539,6.653-9.02,8.244s-3.181,12.609-3.283,12.943h0L414,372.989s-3.089,2.978-2.124,4.9-.189,5.252-.189,5.252-5.218,2.274-4.059,3.676.63,4.025-.165,5.776-2.1,4.9,0,5.427.359,7.357.359,7.357,7.318-.844,6.789,3.5c-.175,1.382,5.116,5.184,7.323,6.707v20.92a63.917,63.917,0,0,1-8.666-2.944c-4.505-2.1-29.815-6.125-35.362,5.955s7.628,28.185,10.921,29.936c0,0,3.123,2.449,3.817,3.676s4.68,1.576,4.68,1.576,4.161,1.94,5.2,2.973c.766.776,7.1,2.788,14.616,4.365h0s-6.067,13.966,3.831,12.817,14.718-6.023,21.7-6.023c2.789,0,7.968-.393,13.181-.858a34.987,34.987,0,0,1,3.88.916,49.86,49.86,0,0,0,9.01,1.94s7.8,4.2,11.964,3.147a2.646,2.646,0,0,0,.941-.485h.1a5.456,5.456,0,0,0,2.507-2.148c5.2.533,11.154,1.29,13.365,2.153,4.311,1.664,35.149-.64,35.149-.64s19.922.393,25.629,2.119,3.681-17.628-6.852-19.805a43.21,43.21,0,0,0-8.54-.844,19.153,19.153,0,0,0,1.993-2.425c3.792-.344,6.3-.558,6.3-.558s10.053-4.9,15.775-7.88a35.992,35.992,0,0,0,9.7-7.7s5.024-3.152,7.1-4.364,3.118-5.252,3.118-5.252C602.76,410.436,562.718,415.169,562.718,415.169Zm-45.139-44.8V368.6c.563.4.48,1.023,0,1.76Zm.165,12.381c.422.553.829,1.057,1.12,1.455,1.12,1.455-.907,2.134-.762,4.544.034.538.083,1.29.131,2.124h0c-.213-3.477-.388-6.338-.49-8.128Z" transform="translate(-215.805 -151.761)"/>
      <path id="Path_785" data-name="Path 785" class="cls-9" d="M427.546,658.977s-9.7-2.255-14.214-4.335-29.815-6.067-35.362,5.9,7.628,27.9,10.921,29.64,35.362-22.021,35.362-22.021l25.295,10.669,4.849-16.556Z" transform="translate(-215.836 -372.742)"/>
      <rect id="Rectangle_394" data-name="Rectangle 394" class="cls-9" width="110.117" height="38.306" rx="19.153" transform="translate(222.412 289.528)"/>
      <path id="Path_786" data-name="Path 786" class="cls-10" d="M613.817,692.01a19.112,19.112,0,0,1-3.191,10.591,19.4,19.4,0,0,1-2.425,2.958,19.092,19.092,0,0,1-13.545,5.611h-71.8a19.155,19.155,0,1,1,0-38.311h71.806A19.156,19.156,0,0,1,613.817,692.01Z" transform="translate(-281.288 -383.332)"/>
      <path id="Path_787" data-name="Path 787" class="cls-11" d="M529.555,714.66s-11.042,2.837-20.052,2.711-51.157,17.385-51.157,17.385-6.067,13.831,3.831,12.686,14.718-5.945,21.7-5.945,28.932-2.425,28.932-2.425l21.124-15.606Z" transform="translate(-256.98 -404.862)"/>
      <path id="Path_788" data-name="Path 788" class="cls-11" d="M566.161,392.982l-19.805,3.9-1.285.257s-15.659-4.161-16.178-4.51-14.733-19.5-14.733-19.5,7.187.078,12.832-3.176c.2-.116.4-.242.6-.364a12.512,12.512,0,0,0,5.334-6.542c.1-.286.189-.582.272-.892a17.594,17.594,0,0,0-.165-8.525c-1.94-8.084,2.522-10.31,8.433-10.116,8.54.281,20.164,5.611,20.164,5.611a23.7,23.7,0,0,0,1.828,7.9c.092.233.194.485.3.708a22.569,22.569,0,0,0,10.518,11.033l.626.31c.63.3,1.295.587,1.983.844C591.989,375.65,566.161,392.982,566.161,392.982Z" transform="translate(-286.675 -213.698)"/>
      <path id="Path_789" data-name="Path 789" class="cls-10" d="M583.367,357.744a24.98,24.98,0,0,1-30.833,5.31,16.8,16.8,0,0,0,.107-9.418c-4.68-19.762,28.612-4.505,28.612-4.505A24.02,24.02,0,0,0,583.367,357.744Z" transform="translate(-306.263 -213.7)"/>
      <path id="Path_790" data-name="Path 790" class="cls-11" d="M576.345,310.135a24.791,24.791,0,0,1-3.783,13.205,24.437,24.437,0,0,1-2.769,3.642,24.82,24.82,0,0,1-16.905,8.05c-.485.034-1,.048-1.508.048a24.96,24.96,0,1,1,24.96-24.96Z" transform="translate(-292.99 -183.646)"/>
      <path id="Path_791" data-name="Path 791" class="cls-10" d="M566.161,419.865l-19.805,3.9-1.285.257s-15.659-4.161-16.178-4.51-14.733-19.5-14.733-19.5,7.187.078,12.832-3.176c.2-.116.4-.242.6-.364a23.248,23.248,0,0,0,16.9,7.386,24.4,24.4,0,0,0,3.54-.257c2.784-.427,5.592-.7,8.395-.97,5.368-.563,13.579-2.192,17.89-6.935l.626.31c.63.3,1.295.587,1.983.844C591.989,402.533,566.161,419.865,566.161,419.865Z" transform="translate(-286.675 -240.58)"/>
      <path id="Path_792" data-name="Path 792" class="cls-3" d="M563.665,470.767c.17,3.817,2.948,46.8,2.948,46.8h-86.5L480.7,490.5l.485-21.648.155-7.1.693-24.611-2.507-2.211L465.9,422.922h0c.1-.32,3.8-11.275,3.283-12.817s6.59-7.8,9.02-8.147a31.592,31.592,0,0,0,4.064-1.237c4.088-1.455,9.544-3.55,10.145-3.22.849.456,9.355-.335,9.7-.369h0A23.2,23.2,0,0,0,519.6,405.2a23.756,23.756,0,0,0,3.526-.281c2.784-.427,5.591-.7,8.395-.994,5.64-.587,14.408-2.357,18.515-7.662a26.24,26.24,0,0,1,5.8,1.241,34.4,34.4,0,0,0,8.5,1.164,43.119,43.119,0,0,1,6.586,2.425,46.059,46.059,0,0,0,6.241,2.425s3.986,1.038,5.029,11.091,2.095,15.775,2.095,15.775l-20.61,17.851S563.5,466.936,563.665,470.767Z" transform="translate(-261.819 -240.869)"/>
      <path id="Path_793" data-name="Path 793" class="cls-11" d="M417.488,520.263l3.031,4.854,11.353,4,7.8-14.228-7.192-4.854-11.527-4.505-6.586,3.812Z" transform="translate(-213.402 -260.375)"/>
      <path id="Path_794" data-name="Path 794" class="cls-9" d="M664.067,639.488s16.12-1.212,22.71-8.666S710,619.382,710,619.382s40.042-4.68,24.247,30.683c0,0-1.038,3.986-3.118,5.2s-7.1,4.335-7.1,4.335l-61.506-5.373Z" transform="translate(-363.089 -355.683)"/>
      <path id="Path_795" data-name="Path 795" class="cls-10" d="M662.313,697.182a19.112,19.112,0,0,1-3.191,10.591c-10.349.917-33.267,3.07-38.063,4.408-5.892,1.634-17.817-1.212-19.121-1.532l-.121-.029s-2.3-6.974-3.395-11.435c-.485-2.027-.742-3.535-.422-3.647,1.042-.344,10.577-2.949,10.4-1.455S637.013,682.9,637.013,682.9L637.9,694C640.82,697.342,662.313,692.366,662.313,697.182Z" transform="translate(-329.784 -388.504)"/>
      <path id="Path_796" data-name="Path 796" class="cls-9" d="M693.066,688.455l-1.212,4.51a35.932,35.932,0,0,1-9.7,7.623c-5.722,2.948-15.775,7.8-15.775,7.8s-36.919,3.118-43.16,4.849-19.243-1.562-19.243-1.562-4.849-14.733-3.812-15.082,10.572-2.944,10.4-1.455,28.612-11.183,28.612-11.183Z" transform="translate(-330.898 -389.049)"/>
      <path id="Path_797" data-name="Path 797" class="cls-11" d="M579.92,755.594s18.147,1.266,22.463,2.91,35.149-.63,35.149-.63,19.922.388,25.629,2.095,3.681-17.458-6.852-19.606-25.377,1.014-25.377,1.014-16.75-2.158-18.782-2.425-15.412.121-15.412.121Z" transform="translate(-320.545 -417.324)"/>
      <path id="Path_798" data-name="Path 798" class="cls-10" d="M432.87,674.72s23.985,2.158,30.581,6.091Z" transform="translate(-244.806 -384.29)"/>
      <path id="Path_799" data-name="Path 799" class="cls-10" d="M713.6,642.28s-18.782,4.568-26.143,11.29Z" transform="translate(-375.934 -367.582)"/>
      <path id="Path_800" data-name="Path 800" class="cls-10" d="M435.75,663.47c.383.126,11.042,1.523,10.785,2.536S435.75,663.47,435.75,663.47Z" transform="translate(-246.29 -378.496)"/>
      <path id="Path_801" data-name="Path 801" class="cls-10" d="M401.21,707.2l1.387,5.2s3.118,2.425,3.812,3.637,4.68,1.562,4.68,1.562,4.161,1.906,5.2,2.944,12.3,4.336,22.88,5.723,30.159,3.986,34.32,5.373a49.945,49.945,0,0,0,9.015,1.906s7.8,4.161,11.959,3.123,11.265-19.936,11.265-19.936-27.385-6.411-28.253-8.491-27.215-11.784-27.215-11.784l-15.6.368Z" transform="translate(-228.5 -395.488)"/>
      <path id="Path_802" data-name="Path 802" class="cls-9" d="M399.06,698.872l1.387,5.2s3.123,2.425,3.817,3.637,4.68,1.561,4.68,1.561,4.161,1.906,5.2,2.948,12.308,4.331,22.88,5.718,30.164,3.986,34.324,5.373a50.119,50.119,0,0,0,9.01,1.9s7.8,4.156,11.964,3.118S503.585,708.4,503.585,708.4s-27.39-6.411-28.253-8.491-39.523-17.851-39.523-17.851l-12.124-2.774Z" transform="translate(-227.392 -386.639)"/>
      <path id="Path_803" data-name="Path 803" class="cls-3" d="M454.6,447.67l-3.031,1.736-5.819,39.867s-3.089,2.948-2.124,4.849-.189,5.2-.189,5.2-5.218,2.255-4.059,3.642.63,3.986-.165,5.717-2.1,4.85,0,5.373.359,7.274.359,7.274,7.318-.834,6.789,3.462c-.218,1.736,8.273,7.274,8.273,7.274s-9.65-17.507,11.968-15.082l1.857-9.869s1.857-5.557,0-7.274.417-9.966.417-9.966l.407-35.794Z" transform="translate(-247.488 -267.347)"/>
      <path id="Path_804" data-name="Path 804" class="cls-10" d="M462.44,553.84c.383.635,12.056,1.94,12.817,4.011S462.44,553.84,462.44,553.84Z" transform="translate(-260.037 -322.031)"/>
      <path id="Path_805" data-name="Path 805" class="cls-10" d="M454.85,569.821s1.586-4.951,5.334-4.064S454.85,569.821,454.85,569.821Z" transform="translate(-256.127 -328.114)"/>
      <path id="Path_806" data-name="Path 806" class="cls-10" d="M450.67,582.661s2.788-6.6,6.6-6.091S450.67,582.661,450.67,582.661Z" transform="translate(-253.974 -333.724)"/>
      <path id="Path_807" data-name="Path 807" class="cls-11" d="M676.651,580.2l-1.217,7.274s-12.478,22.885-14.733,23.229-14.548-15.252-14.548-15.252L642.86,580.2l12.963-2.459,5.756-5.688S676.127,573.442,676.651,580.2Z" transform="translate(-352.963 -331.41)"/>
      <path id="Path_808" data-name="Path 808" class="cls-3" d="M680.878,456.62l4.68,3.293v17.507s3.642-.349,2.774,1.561-2.6,2.944-1.038,4.68,1.213,5.024-.174,5.373-3.812,1.731-1.561,2.6,3.642,2.425,3.642,3.467.175,2.6-.693,3.811-1.731,3.986-.693,5.029-.868,6.411-.868,6.411,3.3,8.5.174,10.921c0,0-1.387,4.849-1.561,5.2,0,0,2.187-16.871-19.621-9.738,0,0-.4-6.43-.553-8.811s1.882-3.079.761-4.5-3.923-4.685-2.6-5.548.868-2.425.344-3.642-2.352-1.212-.693-2.687,2.643-2.856,1.668-3.55-2.667-2.953-1.319-3.991,1.387-16.12,1.387-16.12S670.481,445.7,680.878,456.62Z" transform="translate(-363.087 -270.4)"/>
      <path id="Path_809" data-name="Path 809" class="cls-10" d="M695.84,520.476s6.663-1.809,6.881,0S695.84,520.476,695.84,520.476Z" transform="translate(-380.25 -304.433)"/>
      <path id="Path_810" data-name="Path 810" class="cls-10" d="M680.4,530.342s9.136-2.284,10.276-.509S680.4,530.342,680.4,530.342Z" transform="translate(-372.298 -309.318)"/>
      <path id="Path_811" data-name="Path 811" class="cls-10" d="M676.21,540.866s13.7-1.906,14.592.888S676.21,540.866,676.21,540.866Z" transform="translate(-370.14 -315.021)"/>
      <path id="Path_812" data-name="Path 812" class="cls-10" d="M680.4,553.84c.509.126,13.2,1.014,13.448,3.424S680.4,553.84,680.4,553.84Z" transform="translate(-372.298 -322.031)"/>
      <rect id="Rectangle_395" data-name="Rectangle 395" class="cls-2" width="108.667" height="61.719" rx="10.47" transform="translate(206.167 239.622)"/>
      <circle id="Ellipse_194" data-name="Ellipse 194" class="cls-5" cx="4.006" cy="4.006" r="4.006" transform="translate(256.494 266.478)"/>
      <path id="Path_813" data-name="Path 813" class="cls-10" d="M507.72,491.94s10.417,7.963,18.472,1.9C526.192,493.836,512.574,495.073,507.72,491.94Z" transform="translate(-283.358 -290.149)"/>
      <path id="Path_814" data-name="Path 814" class="cls-10" d="M616.48,496.36s10.412,7.958,18.467,1.891C634.947,498.251,621.334,499.493,616.48,496.36Z" transform="translate(-339.375 -292.425)"/>
      <path id="Path_815" data-name="Path 815" class="cls-10" d="M552.788,310.18a24.791,24.791,0,0,1-3.782,13.205c-.209-6.949-1.843-13.9-5.625-19.708-3.462-5.334-13.991-14.641-21.226-12.046a5.125,5.125,0,0,0-3.162,3.395c-.718,2.725,1.382,3.88,2.73,6.028a18.481,18.481,0,0,1,2.522,12.453,17.356,17.356,0,0,1-.364,1.726c-1.14,4.277-3.749,9.17-1.057,12.677,1.877,2.425,5.911,3.288,6.46,6.3a3.685,3.685,0,0,1,.048.863c-.126,2.042-1.867,3.841-2.628,5.844-.892,2.362-.388,4.709.538,7.08,1.2,3.094,3.123,6.222,3.589,9.49s-.538,6.3-1.722,9.374c-1.12,2.91-2.425,5.8-2.861,8.826-.839,5.761,1.276,12.424-2.352,16.973a2.54,2.54,0,0,1-1.586,1.072c-2.323.242-1.94-3.933-3.8-5.334.2,2.425.388,4.956-.485,7.226s-3.172,4.2-5.577,3.817L511.621,394a15.728,15.728,0,0,1-5.771,3.613,42.064,42.064,0,0,1,6.023-16.294c-6.105,2.939-9.665,9.3-12.841,15.286-1.979,3.739-4.03,7.822-3.336,12,.281,1.7,1.013,3.322,1.174,5.034s-.461,3.715-2.056,4.364a3.717,3.717,0,0,1-4.02-1.246l-.175-.208c-.1-.126-.189-.257-.276-.388a6.5,6.5,0,0,1-.461-.824,15.955,15.955,0,0,1-.97-3.186l-.107-.485c-1.615-7.085-3.07-14.393-1.886-21.561.436-2.638,1.232-5.257,1.135-7.934a14.55,14.55,0,0,0-.912-4.413c-1.416-3.967-4.142-7.609-5.693-11.6a.343.343,0,0,1-.039-.087c-.815-2.114-1.217-4.757.291-6.455a12.742,12.742,0,0,1,2.91-1.94c3.016-1.964,4.364-5.693,4.922-9.253a31.468,31.468,0,0,0,.378-4.849c4.088-1.455,9.544-3.55,10.145-3.22.849.456,9.355-.335,9.7-.368a12.742,12.742,0,0,0,5.955-6.906c.1-.286.189-.582.272-.892A24.96,24.96,0,1,1,552.793,310.2Z" transform="translate(-269.432 -183.691)"/>
      <path id="Path_816" data-name="Path 816" class="cls-2" d="M523.879,284.59c-1.144,4.277-3.749,9.17-1.052,12.681,1.877,2.425,5.911,3.283,6.45,6.3.432,2.425-1.707,4.423-2.57,6.7-2.056,5.446,3.307,10.8,4.122,16.566.888,6.256-3.671,11.954-4.578,18.2-.839,5.761,1.275,12.419-2.352,16.973a2.511,2.511,0,0,1-1.586,1.072c-2.323.247-1.94-3.928-3.8-5.334.2,2.425.388,4.956-.485,7.226s-3.172,4.195-5.577,3.816l-.829-5.451a15.706,15.706,0,0,1-5.771,3.613,42.094,42.094,0,0,1,6.018-16.289c-6.105,2.939-9.66,9.3-12.836,15.281-1.984,3.739-4.03,7.827-3.341,12,.281,1.7,1.014,3.317,1.174,5.034s-.461,3.71-2.056,4.365a3.788,3.788,0,0,1-4.195-1.455,10.936,10.936,0,0,1-1.712-4.4c-1.658-7.235-3.205-14.7-2-22.026.436-2.643,1.232-5.262,1.135-7.934-.208-5.853-4.529-10.669-6.634-16.115-.82-2.119-1.217-4.757.291-6.455a12.741,12.741,0,0,1,2.91-1.94c3.012-1.969,4.365-5.693,4.917-9.253a32.063,32.063,0,0,0-.325-11.581c-1.217-5.7-4.01-11.265-3.317-17.051.679-5.693,4.578-10.388,7.2-15.484a36.633,36.633,0,0,0,3.715-21.41c-.451-3.419-1.241-7.376,1.077-9.932,2.784-3.065,8.171-1.911,11.348-4.568,1.552-1.295,2.3-3.288,3.453-4.946a12.124,12.124,0,0,1,12.953-4.626c2.182.626,4.141,1.867,6.3,2.57,3.045.97,6.3.863,9.5,1.246s6.552,1.455,8.385,4.078c.97,1.4,1.411,3.1,2.3,4.544,1.916,3.1,5.567,4.6,8.332,6.978a16.168,16.168,0,0,1,4.549,17.269c-1.649,4.592-5.465,8.656-5.14,13.525.131,2,.97,3.967.708,5.95-.766,5.524-8.782,6.624-11.551,11.464.223-7.934-1.3-16.105-5.63-22.754C539.93,267.714,529.4,258.4,522.167,261A5.145,5.145,0,0,0,519,264.392c-.718,2.72,1.382,3.88,2.73,6.028A18.331,18.331,0,0,1,523.879,284.59Z" transform="translate(-269.431 -154.086)"/>
      <g id="Group_21" data-name="Group 21" class="cls-12" transform="translate(211.263 92.436)">
        <path id="Path_817" data-name="Path 817" d="M495.285,378.376a31.787,31.787,0,0,0-.694-7.42c-1.033-4.849-3.2-9.6-3.395-14.466-.281,5.422,2.255,10.669,3.395,16a31.826,31.826,0,0,1,.694,5.882Z" transform="translate(-486.1 -312.821)"/>
        <path id="Path_818" data-name="Path 818" d="M526.341,480.344c.422-.771.858-1.537,1.329-2.284-6.1,2.939-9.66,9.3-12.836,15.286-1.838,3.458-3.724,7.221-3.443,11.071.233-3.3,1.857-6.522,3.443-9.515C517.772,489.369,521.041,483.52,526.341,480.344Z" transform="translate(-496.497 -375.436)"/>
        <path id="Path_819" data-name="Path 819" d="M502.99,527.734a3.681,3.681,0,0,1-2.027,3.041,3.786,3.786,0,0,1-4.19-1.455,10.982,10.982,0,0,1-1.717-4.4,79.177,79.177,0,0,1-2.425-15.737c-.116,5.785,1.115,11.614,2.425,17.3a10.912,10.912,0,0,0,1.717,4.4,3.789,3.789,0,0,0,4.19,1.455c1.6-.655,2.221-2.648,2.061-4.365A.591.591,0,0,1,502.99,527.734Z" transform="translate(-486.846 -391.464)"/>
        <path id="Path_820" data-name="Path 820" d="M567.952,334.2a17.6,17.6,0,0,1-.562,3.686c-.844,3.167-2.493,6.678-2.2,9.7.233-2.638,1.494-5.509,2.2-8.152A17.526,17.526,0,0,0,567.952,334.2Z" transform="translate(-524.205 -301.34)"/>
        <path id="Path_821" data-name="Path 821" d="M513.652,276.158a36.377,36.377,0,0,0-.3-5.533c-.179-1.348-.407-2.784-.485-4.185a30.238,30.238,0,0,0,.485,5.747A36.311,36.311,0,0,1,513.652,276.158Z" transform="translate(-497.261 -266.44)"/>
        <path id="Path_822" data-name="Path 822" d="M577.671,384.061a.167.167,0,0,0-.034-.121c-.368,1.8-1.852,3.453-2.536,5.267a7.384,7.384,0,0,0-.427,3.395,6.969,6.969,0,0,1,.427-1.833C575.959,388.484,578.1,386.467,577.671,384.061Z" transform="translate(-529.084 -326.959)"/>
        <path id="Path_823" data-name="Path 823" d="M488.057,459.9c-.213-5.853-4.529-10.669-6.639-16.115a11.046,11.046,0,0,1-.679-2.667,9.01,9.01,0,0,0,.679,4.229c2.076,5.373,6.275,10.1,6.615,15.824C488.057,460.751,488.071,460.324,488.057,459.9Z" transform="translate(-480.709 -356.409)"/>
        <path id="Path_824" data-name="Path 824" d="M583.941,304.726c-3.467-5.334-13.991-14.645-21.226-12.051a5.15,5.15,0,0,0-3.167,3.395,3.67,3.67,0,0,0-.053,1.823,1.007,1.007,0,0,1,.053-.262,5.14,5.14,0,0,1,3.167-3.395c7.235-2.594,17.759,6.731,21.226,12.051,3.918,6.023,5.533,13.292,5.64,20.5C589.682,319.056,588.135,311.166,583.941,304.726Z" transform="translate(-521.242 -279.722)"/>
        <path id="Path_825" data-name="Path 825" d="M633.157,341.168c-.761,5.509-8.729,6.62-11.527,11.43v1.591c2.764-4.849,10.785-5.941,11.547-11.464a6.573,6.573,0,0,0,0-1.634A.431.431,0,0,1,633.157,341.168Z" transform="translate(-553.291 -304.889)"/>
        <path id="Path_826" data-name="Path 826" d="M649.06,296.434c-1.649,4.6-5.465,8.656-5.14,13.53v.213c.359-4.292,3.622-8.016,5.116-12.182a15.268,15.268,0,0,0,.849-5.936,14.828,14.828,0,0,1-.824,4.374Z" transform="translate(-564.761 -279.636)"/>
        <path id="Path_827" data-name="Path 827" d="M564.083,493.28a2.521,2.521,0,0,1-1.586,1.076c-2.323.247-1.94-3.928-3.8-5.334.048.553.092,1.111.121,1.668,1.726,1.494,1.406,5.465,3.676,5.223a2.5,2.5,0,0,0,1.586-1.072c2.071-2.6,2.27-5.882,2.216-9.292C566.246,488.392,565.833,491.1,564.083,493.28Z" transform="translate(-520.879 -379.293)"/>
        <path id="Path_828" data-name="Path 828" d="M544.752,504.03c-.883,2.274-3.172,4.2-5.582,3.816q-.412-2.721-.824-5.451a15.819,15.819,0,0,1-5.485,3.506c-.107.553-.208,1.111-.291,1.668a15.722,15.722,0,0,0,5.776-3.613q.412,2.73.824,5.451c2.425.378,4.7-1.542,5.582-3.817a12.426,12.426,0,0,0,.635-4.932A10.491,10.491,0,0,1,544.752,504.03Z" transform="translate(-507.42 -387.076)"/>
        <path id="Path_829" data-name="Path 829" d="M574.413,449.746a27.711,27.711,0,0,0-.209,4.418,22.116,22.116,0,0,1,.208-2.856c.868-5.96,5.043-11.416,4.665-17.327C578.743,439.324,575.2,444.314,574.413,449.746Z" transform="translate(-528.857 -352.732)"/>
      </g>
      <path id="Path_830" data-name="Path 830" class="cls-3" d="M871.664,637s-3.293,15.339,11.362,17.157l.907-1.7S872.585,641.786,871.664,637Z" transform="translate(-470.646 -364.863)"/>
      <path id="Path_831" data-name="Path 831" class="cls-3" d="M893.439,644.164l-3.394.723-.34.073s-9.093-7.381-8.976-23.859a41.23,41.23,0,0,0,4.34,6.872C888.662,632.739,892.76,639.106,893.439,644.164Z" transform="translate(-475.477 -356.673)"/>
      <path id="Path_832" data-name="Path 832" class="cls-3" d="M900.715,639.724a2.149,2.149,0,0,1-1.833.238c-8.729-2.046-5.8-30.552-5.8-30.552.485.228,1.014,3.88,3.026,8.535C899.643,626.184,903.522,637.658,900.715,639.724Z" transform="translate(-481.598 -350.652)"/>
      <path id="Path_833" data-name="Path 833" class="cls-3" d="M933.415,637s.567,15.339-14.088,17.157l-.907-1.7S932.508,641.786,933.415,637Z" transform="translate(-494.891 -364.863)"/>
      <path id="Path_834" data-name="Path 834" class="cls-3" d="M924.281,621.1c.107,16.488-11.706,23.859-11.706,23.859l-.34-.073-3.395-.723c.674-5.058,4.782-11.425,8.38-16.192a36.858,36.858,0,0,1,7.061-6.872Z" transform="translate(-489.956 -356.673)"/>
      <path id="Path_835" data-name="Path 835" class="cls-3" d="M909.942,638.246a5.422,5.422,0,0,1-1.94,1.494h0a3.74,3.74,0,0,1-.713.238c-2.153.485-2.91-1.047-2.784-3.686.2-4.7,3.157-12.846,5.819-18.913a23.575,23.575,0,0,1,5.495-7.939C915.79,609.416,915.66,631.621,909.942,638.246Z" transform="translate(-487.717 -350.668)"/>
      <path id="Path_836" data-name="Path 836" class="cls-3" d="M905.617,588.77s-9.772,34.654-1.363,39.882S907.775,591.84,905.617,588.77Z" transform="translate(-485.836 -340.022)"/>
      <path id="Path_837" data-name="Path 837" class="cls-10" d="M871.664,637s-3.293,15.339,11.362,17.157l.907-1.7S872.585,641.786,871.664,637Z" transform="translate(-470.646 -364.863)"/>
      <path id="Path_838" data-name="Path 838" class="cls-10" d="M893.439,644.164l-3.394.723-.34.073s-9.093-7.381-8.976-23.859a41.23,41.23,0,0,0,4.34,6.872C888.662,632.739,892.76,639.106,893.439,644.164Z" transform="translate(-475.477 -356.673)"/>
      <path id="Path_839" data-name="Path 839" class="cls-10" d="M900.715,639.724a2.149,2.149,0,0,1-1.833.238c-8.729-2.046-5.8-30.552-5.8-30.552.485.228,1.014,3.88,3.026,8.535C899.643,626.184,903.522,637.658,900.715,639.724Z" transform="translate(-481.598 -350.652)"/>
      <path id="Path_840" data-name="Path 840" class="cls-10" d="M933.415,637s.567,15.339-14.088,17.157l-.907-1.7S932.508,641.786,933.415,637Z" transform="translate(-494.891 -364.863)"/>
      <path id="Path_841" data-name="Path 841" class="cls-10" d="M924.281,621.1c.107,16.488-11.706,23.859-11.706,23.859l-.34-.073-3.395-.723c.674-5.058,4.782-11.425,8.38-16.192a36.858,36.858,0,0,1,7.061-6.872Z" transform="translate(-489.956 -356.673)"/>
      <path id="Path_842" data-name="Path 842" class="cls-10" d="M909.942,638.246a5.422,5.422,0,0,1-1.94,1.494h0a3.74,3.74,0,0,1-.713.238c-2.153.485-2.91-1.047-2.784-3.686.2-4.7,3.157-12.846,5.819-18.913a23.575,23.575,0,0,1,5.495-7.939C915.79,609.416,915.66,631.621,909.942,638.246Z" transform="translate(-487.717 -350.668)"/>
      <path id="Path_843" data-name="Path 843" class="cls-10" d="M905.617,588.77s-9.772,34.654-1.363,39.882S907.775,591.84,905.617,588.77Z" transform="translate(-485.836 -340.022)"/>
      <path id="Path_844" data-name="Path 844" class="cls-3" d="M871.91,637s-1.94,15.339,12.725,17.157l.907-1.7S872.831,641.786,871.91,637Z" transform="translate(-470.892 -364.863)"/>
      <path id="Path_845" data-name="Path 845" class="cls-3" d="M894.8,644.164l-3.395.723-.344.073S880.6,637.578,880.719,621.1c0,0,2.677,2.871,5.7,6.872C890.02,632.739,894.118,639.106,894.8,644.164Z" transform="translate(-475.472 -356.673)"/>
      <path id="Path_846" data-name="Path 846" class="cls-10" d="M900.855,651.462l-3.395.723c-3.235-2.837-4.515-10.242-4.98-16.915C896.078,640.037,900.176,646.4,900.855,651.462Z" transform="translate(-481.53 -363.971)"/>
      <path id="Path_847" data-name="Path 847" class="cls-3" d="M902.46,639.724a2.149,2.149,0,0,1-1.833.238c-8.753-2.047-7.158-30.552-7.158-30.552.485.228,2.376,3.88,4.365,8.535C901.388,626.184,905.268,637.658,902.46,639.724Z" transform="translate(-481.981 -350.652)"/>
      <path id="Path_848" data-name="Path 848" class="cls-3" d="M934.862,637s1.94,15.339-12.725,17.157l-.907-1.7S933.955,641.786,934.862,637Z" transform="translate(-496.338 -364.863)"/>
      <path id="Path_849" data-name="Path 849" class="cls-3" d="M925.728,621.1c.107,16.488-10.344,23.859-10.344,23.859l-.339-.073-3.395-.723c.679-5.058,4.781-11.425,8.38-16.192C923.046,623.961,925.728,621.1,925.728,621.1Z" transform="translate(-491.404 -356.673)"/>
      <path id="Path_850" data-name="Path 850" class="cls-10" d="M920.015,635.27c-.437,6.227-1.576,13.094-4.34,16.28a5.583,5.583,0,0,1-.63.635l-3.395-.723C912.3,646.4,916.417,640.037,920.015,635.27Z" transform="translate(-491.404 -363.971)"/>
      <path id="Path_851" data-name="Path 851" class="cls-3" d="M912.747,638.246a5.42,5.42,0,0,1-1.94,1.494h0a3.781,3.781,0,0,1-.718.238c-2.153.485-2.91-1.047-2.784-3.686.208-4.7,3.157-12.846,5.819-18.913,1.911-4.394,3.666-7.72,4.132-7.939C917.233,609.416,918.464,631.621,912.747,638.246Z" transform="translate(-489.159 -350.668)"/>
      <path id="Path_852" data-name="Path 852" class="cls-10" d="M906.693,648.789a2.425,2.425,0,0,1-1.382-.441c-4.117-2.565-4.2-12.192-3.22-21.338C905.622,635.249,909.5,646.723,906.693,648.789Z" transform="translate(-486.214 -359.717)"/>
      <path id="Path_853" data-name="Path 853" class="cls-10" d="M912.761,646.677c-.485,1.023-1.11,1.566-1.94,1.494h0a2.783,2.783,0,0,1-1.174-.441,6.248,6.248,0,0,1-2.328-3.007c.209-4.7,3.157-12.846,5.819-18.913C914.061,634.243,914.376,643.21,912.761,646.677Z" transform="translate(-489.174 -359.099)"/>
      <path id="Path_854" data-name="Path 854" class="cls-3" d="M906.721,588.77s-8.409,34.654,0,39.882S908.879,591.84,906.721,588.77Z" transform="translate(-486.94 -340.022)"/>
      <path id="Path_855" data-name="Path 855" class="cls-13" d="M861.684,591.66H826.69v5.8h5.339l.131.684,2.139,11.246h20.344l2.138-11.246.131-.684h4.772Z" transform="translate(-425.769 -304.737)"/>
      <path id="Path_856" data-name="Path 856" class="cls-10" d="M861.654,591.66H826.66v5.8H832l.131.684,2.138,11.246h20.344l2.139-11.246.131-.684h4.772Z" transform="translate(-425.754 -304.737)"/>
      <path id="Path_857" data-name="Path 857" class="cls-13" d="M865.364,598.69l-.587,3.07-2.139,11.246H842.3l-2.139-11.246-.587-3.07Z" transform="translate(-432.403 -308.357)"/>
      <path id="Path_858" data-name="Path 858" class="cls-10" d="M865.364,598.69l-.587,3.07H840.157l-.587-3.07Z" transform="translate(-432.403 -308.357)"/>
      <rect id="Rectangle_396" data-name="Rectangle 396" class="cls-13" width="34.994" height="5.795" transform="translate(402.284 286.923)"/>
      <path id="Path_859" data-name="Path 859" class="cls-3" d="M296.273,586.872a8.947,8.947,0,0,0-1.183,2.231c-.073.194-.146.417-.218.63a1.722,1.722,0,0,0-.412-.141,5.725,5.725,0,0,0-1.852-.16c0-.242.024-.485.034-.761.078-2.745-.247-6.561-2.861-4.946-2.507,1.561-.718,4.151.9,5.819.141.146.276.277.412.407-1.455,1.062-1.756,3.5-2,6.057s-2.425,5.334-3.85,6.935c-.141.16-.276.306-.407.441a5.227,5.227,0,0,0-4.18-1.077l-.194-.708c-1.164-4.2-3.584-11.488-6.668-13.093l.407-.514c1.309-1.717,2.784-4.263.606-4.913s-2.376,2.206-2.255,4.365a7.333,7.333,0,0,0,.063.761,3.215,3.215,0,0,0-2.284,1.111c-.1-.126-.213-.257-.335-.4-1.765-2.09-5.009-5.393-5.989-2.91-.912,2.328,1.94,5.334,3.947,7.109l.126.107c-1.348,5.47,4.529,9.922,7.7,11.872.141.092.276.175.407.252-4.365,5.145-7.066,14.8-7.066,14.8l12.25,2.226s8.113-7,7.075-13.578h.082c8.1-1.625,9.946-10.266,8.685-15.4l.141-.058a9.214,9.214,0,0,0,3.753-2.837C303.358,587.357,298.6,583.793,296.273,586.872Z" transform="translate(-157.741 -337.042)"/>
      <path id="Path_860" data-name="Path 860" class="cls-10" d="M296.273,586.872a8.947,8.947,0,0,0-1.183,2.231c-.073.194-.146.417-.218.63a1.722,1.722,0,0,0-.412-.141,5.725,5.725,0,0,0-1.852-.16c0-.242.024-.485.034-.761.078-2.745-.247-6.561-2.861-4.946-2.507,1.561-.718,4.151.9,5.819.141.146.276.277.412.407-1.455,1.062-1.756,3.5-2,6.057s-2.425,5.334-3.85,6.935c-.141.16-.276.306-.407.441a5.227,5.227,0,0,0-4.18-1.077l-.194-.708c-1.164-4.2-3.584-11.488-6.668-13.093l.407-.514c1.309-1.717,2.784-4.263.606-4.913s-2.376,2.206-2.255,4.365a7.333,7.333,0,0,0,.063.761,3.215,3.215,0,0,0-2.284,1.111c-.1-.126-.213-.257-.335-.4-1.765-2.09-5.009-5.393-5.989-2.91-.912,2.328,1.94,5.334,3.947,7.109l.126.107c-1.348,5.47,4.529,9.922,7.7,11.872.141.092.276.175.407.252-4.365,5.145-7.066,14.8-7.066,14.8l12.25,2.226s8.113-7,7.075-13.578h.082c8.1-1.625,9.946-10.266,8.685-15.4l.141-.058a9.214,9.214,0,0,0,3.753-2.837C303.358,587.357,298.6,583.793,296.273,586.872Z" transform="translate(-157.741 -337.042)"/>
      <path id="Path_861" data-name="Path 861" class="cls-3" d="M272.724,592.7l-1.431,4.19a23.089,23.089,0,0,1-1.8-1.455c-2.008-1.755-4.849-4.781-3.947-7.109.97-2.5,4.224.8,5.994,2.91C272.249,592.07,272.724,592.7,272.724,592.7Z" transform="translate(-158.538 -339.33)"/>
      <path id="Path_862" data-name="Path 862" class="cls-3" d="M284.973,588.054a20.725,20.725,0,0,1-1.392,1.639,21.478,21.478,0,0,1-.257-2.2c-.116-2.143.107-4.99,2.255-4.365S286.282,586.337,284.973,588.054Z" transform="translate(-167.769 -337.07)"/>
      <path id="Path_863" data-name="Path 863" class="cls-3" d="M320.431,589.084c-.049,1.377-.179,2.478-.179,2.478a18.186,18.186,0,0,1-1.785-1.6c-1.62-1.678-3.395-4.268-.9-5.819C320.184,582.522,320.5,586.339,320.431,589.084Z" transform="translate(-184.781 -337.44)"/>
      <path id="Path_864" data-name="Path 864" class="cls-3" d="M335.1,593.37a9.215,9.215,0,0,1-3.754,2.837,10.153,10.153,0,0,1-1.261.456L328.4,594.3a16.962,16.962,0,0,1,.7-2.3,8.791,8.791,0,0,1,1.183-2.231C332.609,586.673,337.362,590.237,335.1,593.37Z" transform="translate(-190.999 -339.922)"/>
      <path id="Path_865" data-name="Path 865" class="cls-10" d="M275.916,595.26c.708.834,1.183,1.455,1.183,1.455l-1.431,4.19a23.131,23.131,0,0,1-1.8-1.455,8.206,8.206,0,0,1,1.61-3.681Q275.7,595.507,275.916,595.26Z" transform="translate(-162.913 -343.364)"/>
      <path id="Path_866" data-name="Path 866" class="cls-10" d="M285,592.783a20.753,20.753,0,0,1-1.392,1.639,21.451,21.451,0,0,1-.257-2.2A2.843,2.843,0,0,1,285,592.783Z" transform="translate(-167.796 -341.799)"/>
      <path id="Path_867" data-name="Path 867" class="cls-3" d="M287.069,610.2l-3.555,1.566a21.3,21.3,0,0,1-1.9-1.072c-3.739-2.3-11.256-8.084-6.217-14.907s9.243,5.412,10.9,11.4C286.8,608.969,287.069,610.2,287.069,610.2Z" transform="translate(-162.834 -342.597)"/>
      <path id="Path_868" data-name="Path 868" class="cls-10" d="M320.74,595.622a2.91,2.91,0,0,1,1.964-.883c-.048,1.377-.179,2.478-.179,2.478a18.188,18.188,0,0,1-1.785-1.6Z" transform="translate(-187.054 -343.096)"/>
      <path id="Path_869" data-name="Path 869" class="cls-10" d="M331.344,599.839a10.142,10.142,0,0,1-1.261.456l-1.683-2.366a16.964,16.964,0,0,1,.7-2.3C330.185,596.265,330.985,597.846,331.344,599.839Z" transform="translate(-190.999 -343.555)"/>
      <path id="Path_870" data-name="Path 870" class="cls-3" d="M308.665,615.613c-.194.039-.4.078-.6.107-11.925,1.814-3.933-4.621-3.933-4.621s.538-.485,1.266-1.3c1.455-1.591,3.6-4.364,3.85-6.935.373-3.88.8-7.492,5.368-6.426C319.1,597.486,319.95,613.354,308.665,615.613Z" transform="translate(-177.151 -343.874)"/>
      <rect id="Rectangle_397" data-name="Rectangle 397" class="cls-13" width="22.783" height="5.989" transform="translate(108.513 301.428)"/>
      <rect id="Rectangle_398" data-name="Rectangle 398" class="cls-13" width="29.766" height="20.906" transform="translate(104.89 281.958)"/>
      <rect id="Rectangle_399" data-name="Rectangle 399" class="cls-10" width="22.783" height="5.989" transform="translate(108.513 301.428)"/>
      <rect id="Rectangle_400" data-name="Rectangle 400" class="cls-10" width="29.766" height="20.906" transform="translate(104.89 281.958)"/>
      <rect id="Rectangle_401" data-name="Rectangle 401" class="cls-13" width="22.783" height="5.989" transform="translate(110.007 301.428)"/>
      <path id="Path_871" data-name="Path 871" class="cls-10" d="M294.69,621.42c.485,1.789.771,3.016.771,3.016L291.906,626a21.285,21.285,0,0,1-1.9-1.072A9.077,9.077,0,0,1,294.69,621.42Z" transform="translate(-171.226 -356.838)"/>
      <path id="Path_872" data-name="Path 872" class="cls-10" d="M308.665,630c-.194.039-.4.078-.6.107-11.925,1.814-3.933-4.622-3.933-4.622s.538-.485,1.266-1.3A7.9,7.9,0,0,1,308.665,630Z" transform="translate(-177.151 -358.265)"/>
      <path id="Path_873" data-name="Path 873" class="cls-3" d="M276.29,640.631s6.678-23.9,16.037-16.537-3.807,18.724-3.807,18.724Z" transform="translate(-164.159 -357.49)"/>
      <circle id="Ellipse_195" data-name="Ellipse 195" class="cls-10" cx="0.747" cy="0.747" r="0.747" transform="translate(114.754 256.188)"/>
      <circle id="Ellipse_196" data-name="Ellipse 196" class="cls-10" cx="0.747" cy="0.747" r="0.747" transform="translate(114.691 259.679)"/>
      <circle id="Ellipse_197" data-name="Ellipse 197" class="cls-10" cx="0.747" cy="0.747" r="0.747" transform="translate(136.407 256.871)"/>
      <circle id="Ellipse_198" data-name="Ellipse 198" class="cls-10" cx="0.747" cy="0.747" r="0.747" transform="translate(118.934 274.78)"/>
      <circle id="Ellipse_199" data-name="Ellipse 199" class="cls-10" cx="0.747" cy="0.747" r="0.747" transform="translate(134.85 262.676)"/>
      <circle id="Ellipse_200" data-name="Ellipse 200" class="cls-10" cx="0.747" cy="0.747" r="0.747" transform="translate(127.111 270.416)"/>
      <circle id="Ellipse_201" data-name="Ellipse 201" class="cls-10" cx="0.747" cy="0.747" r="0.747" transform="translate(117.315 257.681)"/>
      <circle id="Ellipse_202" data-name="Ellipse 202" class="cls-10" cx="0.747" cy="0.747" r="0.747" transform="translate(134.351 259.117)"/>
      <circle id="Ellipse_203" data-name="Ellipse 203" class="cls-10" cx="0.747" cy="0.747" r="0.747" transform="translate(131.79 264.921)"/>
      <circle id="Ellipse_204" data-name="Ellipse 204" class="cls-10" cx="0.747" cy="0.747" r="0.747" transform="translate(123.929 274.223)"/>
      <circle id="Ellipse_205" data-name="Ellipse 205" class="cls-10" cx="0.747" cy="0.747" r="0.747" transform="translate(122.305 270.537)"/>
      <circle id="Ellipse_206" data-name="Ellipse 206" class="cls-10" cx="0.747" cy="0.747" r="0.747" transform="translate(118.435 262.24)"/>
      <rect id="Rectangle_402" data-name="Rectangle 402" class="cls-10" width="22.783" height="2.187" transform="translate(110.007 301.428)"/>
      <rect id="Rectangle_403" data-name="Rectangle 403" class="cls-13" width="29.766" height="20.906" transform="translate(106.389 281.958)"/>
      <circle id="Ellipse_207" data-name="Ellipse 207" class="cls-10" cx="0.747" cy="0.747" r="0.747" transform="translate(124.928 277.593)"/>
      <circle id="Ellipse_208" data-name="Ellipse 208" class="cls-10" cx="0.747" cy="0.747" r="0.747" transform="translate(120.433 278.529)"/>
    </g>
  </g>
</svg>
