<svg xmlns="http://www.w3.org/2000/svg" width="29.545" height="23.996" viewBox="0 0 29.545 23.996">
  <defs>
    <style>
      .cls-1 {
        fill: #edf3f3;
      }
    </style>
  </defs>
  <path id="twitter" class="cls-1" d="M26.508,9.361c.019.262.019.525.019.787,0,8-6.093,17.228-17.228,17.228A17.111,17.111,0,0,1,0,24.658a12.527,12.527,0,0,0,1.462.075A12.127,12.127,0,0,0,8.98,22.146a6.066,6.066,0,0,1-5.662-4.2,7.636,7.636,0,0,0,1.144.094,6.4,6.4,0,0,0,1.593-.206A6.056,6.056,0,0,1,1.2,11.892v-.075a6.1,6.1,0,0,0,2.737.769,6.064,6.064,0,0,1-1.875-8.1,17.212,17.212,0,0,0,12.485,6.336,6.836,6.836,0,0,1-.15-1.387A6.061,6.061,0,0,1,24.877,5.293,11.921,11.921,0,0,0,28.72,3.831a6.039,6.039,0,0,1-2.662,3.337,12.139,12.139,0,0,0,3.487-.937,13.016,13.016,0,0,1-3.037,3.131Z" transform="translate(0 -3.381)"/>
</svg>
