<svg xmlns="http://www.w3.org/2000/svg" xmlns:xlink="http://www.w3.org/1999/xlink" width="510.168" height="344" viewBox="0 0 510.168 344">
  <defs>
    <style>
      .cls-1 {
        fill: #3f3d56;
      }

      .cls-2 {
        fill: #075a5d;
      }

      .cls-3 {
        fill: url(#linear-gradient);
      }

      .cls-4 {
        fill: #e7effd;
      }

      .cls-5 {
        opacity: 0.3;
      }

      .cls-6 {
        opacity: 0.4;
      }

      .cls-7 {
        fill: url(#linear-gradient-2);
      }

      .cls-8 {
        fill: #65617d;
      }

      .cls-9 {
        opacity: 0.1;
      }

      .cls-10 {
        fill: #fbbebe;
      }

      .cls-11 {
        opacity: 0.2;
      }

      .cls-12 {
        fill: #d4dfec;
      }
    </style>
    <linearGradient id="linear-gradient" x1="0.5" y1="1" x2="0.5" gradientUnits="objectBoundingBox">
      <stop offset="0.2" stop-color="gray" stop-opacity="0.4"/>
      <stop offset="0.46" stop-color="gray" stop-opacity="0.502"/>
      <stop offset="1" stop-opacity="0.6"/>
    </linearGradient>
    <linearGradient id="linear-gradient-2" x1="0.5" y1="1" x2="0.5" gradientUnits="objectBoundingBox">
      <stop offset="0" stop-color="gray" stop-opacity="0.251"/>
      <stop offset="0.54" stop-color="gray" stop-opacity="0.122"/>
      <stop offset="1" stop-color="gray" stop-opacity="0.102"/>
    </linearGradient>
  </defs>
  <g id="working" transform="translate(0.043 0)">
    <path id="Path_769" data-name="Path 769" class="cls-1" d="M560.533,604.578c0,20.4-112.273,95.5-252.491,95.5S57.45,620.042,57.45,599.646s110.375,26.565,250.592,26.565S560.533,584.163,560.533,604.578Z" transform="translate(-51.801 -356.082)"/>
    <path id="Path_770" data-name="Path 770" class="cls-2" d="M555.235,316.185V317c-.308,8.477-5.029,16.907-13.643,22.86-9.139,6.307-21.394,9.626-33.975,11.745-1.967.331-3.944.63-5.916.919-1.007.138-2.009.276-3.006.4-28.009,3.677-56.605,4.381-85.069,5.057-29.774.735-59.575,1.462-89.381,1.839l-5.912.069c-45.224.487-90.429.078-135.487-2.487-13.984-.791-28.105-1.839-41.969-3.6q-2.965-.363-5.912-.8c-18.387-2.634-36.228-6.675-52.482-13.234a116.985,116.985,0,0,1-11.244-5.194c-10.21-5.42-18.819-12.274-23.081-20.686a29.015,29.015,0,0,1-2.942-15.96,37.335,37.335,0,0,1,1.025-5.916,52.717,52.717,0,0,1,5.806-13.657c6.638-11.225,16.608-21.288,25.2-31.829,18.351-22.465,30.3-50.85,13.368-73.876-4.859-6.615-11.883-12.411-15.841-19.33a31.13,31.13,0,0,1-3.88-12.145,43.7,43.7,0,0,1-.244-5.916,82.066,82.066,0,0,1,1.724-13.717C75.136,107.429,80.29,92.2,96.2,83.4c10.862-6.013,24.708-7.879,38.747-7.525q2.956.069,5.912.276c5.383.354,10.734,1.007,15.9,1.839,31.92,5.1,61.382,15.749,91.123,25.365,22.644,7.318,46.1,14.163,70.433,17.427,1.967.262,3.935.506,5.912.717,5.7.625,11.46,1.039,17.261,1.209,28.873.827,62.558-5.424,81.732-21.66,18.521-15.694,53.254-16.958,78.463-7.585l.377.142q2.845,1.085,5.516,2.335c18.576,8.734,31.019,23.692,32.776,39.344a34.162,34.162,0,0,1,.156,5.856.251.251,0,0,1,0,.06c-1.2,19.256-16.944,35.428-32.927,51.627-1.977,2-3.958,4-5.916,6.013A211.862,211.862,0,0,0,487.1,215.045a76.03,76.03,0,0,0-5.479,7.861,50.769,50.769,0,0,0-3.894,7.916,32.921,32.921,0,0,0-2.147,8.872,23.2,23.2,0,0,0,2.3,12.687l.041.092c4.266,8.458,13.294,14.453,23.747,19.766,1.926.984,3.907,1.94,5.916,2.887,11.336,5.351,23.55,10.32,32.835,16.926a49.23,49.23,0,0,1,6.978,5.884,35.581,35.581,0,0,1,2.464,2.836,24.887,24.887,0,0,1,5.369,15.027C555.235,315.937,555.235,316.061,555.235,316.185Z" transform="translate(-45.11 -75.83)"/>
    <path id="Path_771" data-name="Path 771" class="cls-3" d="M555.235,316.185V317c-.308,8.477-5.029,16.907-13.643,22.86-9.139,6.307-21.394,9.626-33.975,11.745-1.967.331-3.944.63-5.916.919-1.007.138-2.009.276-3.006.4-28.009,3.677-56.605,4.381-85.069,5.057-29.774.735-59.575,1.462-89.381,1.839l-5.912.069c-45.224.487-90.429.078-135.487-2.487-13.984-.791-28.105-1.839-41.969-3.6q-2.965-.363-5.912-.8c-18.387-2.634-36.228-6.675-52.482-13.234a116.985,116.985,0,0,1-11.244-5.194c-10.21-5.42-18.819-12.274-23.081-20.686a29.015,29.015,0,0,1-2.942-15.96,37.335,37.335,0,0,1,1.025-5.916,52.717,52.717,0,0,1,5.806-13.657c6.638-11.225,16.608-21.288,25.2-31.829,18.351-22.465,30.3-50.85,13.368-73.876-4.859-6.615-11.883-12.411-15.841-19.33a31.13,31.13,0,0,1-3.88-12.145,43.7,43.7,0,0,1-.244-5.916,82.066,82.066,0,0,1,1.724-13.717C75.136,107.429,80.29,92.2,96.2,83.4c10.862-6.013,24.708-7.879,38.747-7.525q2.956.069,5.912.276c5.383.354,10.734,1.007,15.9,1.839,31.92,5.1,61.382,15.749,91.123,25.365,22.644,7.318,46.1,14.163,70.433,17.427,1.967.262,3.935.506,5.912.717,5.7.625,11.46,1.039,17.261,1.209,28.873.827,62.558-5.424,81.732-21.66,18.521-15.694,53.254-16.958,78.463-7.585l.377.142q2.845,1.085,5.516,2.335c18.576,8.734,31.019,23.692,32.776,39.344a34.162,34.162,0,0,1,.156,5.856.251.251,0,0,1,0,.06c-1.2,19.256-16.944,35.428-32.927,51.627-1.977,2-3.958,4-5.916,6.013A211.862,211.862,0,0,0,487.1,215.045a76.03,76.03,0,0,0-5.479,7.861,50.769,50.769,0,0,0-3.894,7.916,32.921,32.921,0,0,0-2.147,8.872,23.2,23.2,0,0,0,2.3,12.687l.041.092c4.266,8.458,13.294,14.453,23.747,19.766,1.926.984,3.907,1.94,5.916,2.887,11.336,5.351,23.55,10.32,32.835,16.926a49.23,49.23,0,0,1,6.978,5.884,35.581,35.581,0,0,1,2.464,2.836,24.887,24.887,0,0,1,5.369,15.027C555.235,315.937,555.235,316.061,555.235,316.185Z" transform="translate(-45.11 -75.83)"/>
    <path id="Path_772" data-name="Path 772" class="cls-1" d="M1044.316,116.658v96.883c-1.977,2-3.958,4-5.916,6.017V114.18Z" transform="translate(-581.823 -96.551)"/>
    <path id="Path_773" data-name="Path 773" class="cls-1" d="M570.592,211.016a.257.257,0,0,1,0,.06H100.956a43.768,43.768,0,0,1-.244-5.916H570.435a34.131,34.131,0,0,1,.156,5.856Z" transform="translate(-75.167 -145.709)"/>
    <circle id="Ellipse_181" data-name="Ellipse 181" class="cls-4" cx="1.724" cy="1.724" r="1.724" transform="translate(109.184 31.286)"/>
    <circle id="Ellipse_182" data-name="Ellipse 182" class="cls-4" cx="1.724" cy="1.724" r="1.724" transform="translate(53.976 27.834)"/>
    <circle id="Ellipse_183" data-name="Ellipse 183" class="cls-4" cx="0.74" cy="0.74" r="0.74" transform="translate(129.64 32.27)"/>
    <circle id="Ellipse_184" data-name="Ellipse 184" class="cls-4" cx="0.74" cy="0.74" r="0.74" transform="translate(74.184 30.546)"/>
    <circle id="Ellipse_185" data-name="Ellipse 185" class="cls-4" cx="0.74" cy="0.74" r="0.74" transform="translate(73.448 82.237)"/>
    <circle id="Ellipse_186" data-name="Ellipse 186" class="cls-4" cx="0.74" cy="0.74" r="0.74" transform="translate(414.796 43.174)"/>
    <circle id="Ellipse_187" data-name="Ellipse 187" class="cls-4" cx="0.74" cy="0.74" r="0.74" transform="translate(164.144 43.854)"/>
    <circle id="Ellipse_188" data-name="Ellipse 188" class="cls-4" cx="0.74" cy="0.74" r="0.74" transform="translate(378.32 42.374)"/>
    <circle id="Ellipse_189" data-name="Ellipse 189" class="cls-4" cx="0.74" cy="0.74" r="0.74" transform="translate(471.484 44.594)"/>
    <path id="Path_774" data-name="Path 774" class="cls-2" d="M586,474.4v.818c-.234,8.541-4.965,17.059-13.643,23.053-9.139,6.307-21.394,9.626-33.975,11.745-1.967.331-3.944.63-5.916.919-1.007.138-2.009.276-3.006.4-6.9.919-13.827,1.623-20.782,2.211-9.332.791-18.709,1.338-28.1,1.742-12.053.529-24.129.828-36.191,1.126-23.577.579-47.173,1.159-70.791,1.558l-8.38.138-10.223.138-5.912.069c-37.234.4-74.414.193-111.529-1.324q-3.705-.147-7.4-.322-8.274-.363-16.549-.841c-11.055-.625-22.2-1.416-33.221-2.588q-4.385-.46-8.734-1.016-2.965-.363-5.912-.8-3.282-.46-6.537-1c-16.089-2.629-31.622-6.436-45.945-12.237A119.215,119.215,0,0,1,102,492.99v-80.9c2.041-2.367,4.068-4.735,6.017-7.13,2.344-2.878,4.6-5.843,6.665-8.886h44.5V368.65h78.376v60.283H365.215V381.126H512.5a51.483,51.483,0,0,0-3.857,7.654v.257h-.17a32.922,32.922,0,0,0-2.147,8.872,23.2,23.2,0,0,0,2.3,12.687v.193l.041.092c4.266,8.458,13.294,14.452,23.747,19.766,1.926.984,3.907,1.94,5.916,2.887,11.221,5.3,23.311,10.223,32.559,16.732l.276.193a49.471,49.471,0,0,1,6.808,5.691c.069.064.129.129.188.193a35.578,35.578,0,0,1,2.464,2.836,24.92,24.92,0,0,1,5.369,14.834C586,474.152,586,474.276,586,474.4Z" transform="translate(-75.872 -234.045)"/>
    <path id="Path_775" data-name="Path 775" class="cls-5" d="M586,474.4v.818c-.234,8.541-4.965,17.059-13.643,23.053-9.139,6.307-21.394,9.626-33.975,11.745-1.967.331-3.944.63-5.916.919-1.007.138-2.009.276-3.006.4-6.9.919-13.827,1.623-20.782,2.211-9.332.791-18.709,1.338-28.1,1.742-12.053.529-24.129.828-36.191,1.126-23.577.579-47.173,1.159-70.791,1.558l-8.38.138-10.223.138-5.912.069c-37.234.4-74.414.193-111.529-1.324q-3.705-.147-7.4-.322-8.274-.363-16.549-.841c-11.055-.625-22.2-1.416-33.221-2.588q-4.385-.46-8.734-1.016-2.965-.363-5.912-.8-3.282-.46-6.537-1c-16.089-2.629-31.622-6.436-45.945-12.237A119.215,119.215,0,0,1,102,492.99v-80.9c2.041-2.367,4.068-4.735,6.017-7.13,2.344-2.878,4.6-5.843,6.665-8.886h44.5V368.65h78.376v60.283H365.215V381.126H512.5a51.483,51.483,0,0,0-3.857,7.654v.257h-.17a32.922,32.922,0,0,0-2.147,8.872,23.2,23.2,0,0,0,2.3,12.687v.193l.041.092c4.266,8.458,13.294,14.452,23.747,19.766,1.926.984,3.907,1.94,5.916,2.887,11.221,5.3,23.311,10.223,32.559,16.732l.276.193a49.471,49.471,0,0,1,6.808,5.691c.069.064.129.129.188.193a35.578,35.578,0,0,1,2.464,2.836,24.92,24.92,0,0,1,5.369,14.834C586,474.152,586,474.276,586,474.4Z" transform="translate(-75.872 -234.045)"/>
    <rect id="Rectangle_357" data-name="Rectangle 357" class="cls-6" width="13.147" height="8.872" transform="translate(40.746 173.204)"/>
    <rect id="Rectangle_358" data-name="Rectangle 358" class="cls-6" width="13.147" height="8.872" transform="translate(61.781 173.204)"/>
    <rect id="Rectangle_359" data-name="Rectangle 359" class="cls-6" width="13.147" height="8.872" transform="translate(303.313 154.969)"/>
    <rect id="Rectangle_360" data-name="Rectangle 360" class="cls-6" width="13.147" height="8.872" transform="translate(338.806 154.969)"/>
    <rect id="Rectangle_361" data-name="Rectangle 361" class="cls-6" width="13.147" height="8.872" transform="translate(376.922 154.969)"/>
    <rect id="Rectangle_362" data-name="Rectangle 362" class="cls-6" width="13.147" height="8.872" transform="translate(303.313 182.081)"/>
    <rect id="Rectangle_363" data-name="Rectangle 363" class="cls-6" width="13.147" height="8.872" transform="translate(338.806 182.081)"/>
    <rect id="Rectangle_364" data-name="Rectangle 364" class="cls-2" width="13.147" height="8.872" transform="translate(376.922 182.081)"/>
    <rect id="Rectangle_365" data-name="Rectangle 365" class="cls-6" width="13.147" height="8.872" transform="translate(303.313 209.188)"/>
    <rect id="Rectangle_366" data-name="Rectangle 366" class="cls-6" width="13.147" height="8.872" transform="translate(338.806 209.188)"/>
    <rect id="Rectangle_367" data-name="Rectangle 367" class="cls-6" width="13.147" height="8.872" transform="translate(376.922 209.188)"/>
    <rect id="Rectangle_368" data-name="Rectangle 368" class="cls-6" width="13.147" height="8.872" transform="translate(303.313 236.301)"/>
    <rect id="Rectangle_369" data-name="Rectangle 369" class="cls-6" width="13.147" height="8.872" transform="translate(338.806 236.301)"/>
    <rect id="Rectangle_370" data-name="Rectangle 370" class="cls-6" width="13.147" height="8.872" transform="translate(376.922 236.301)"/>
    <rect id="Rectangle_371" data-name="Rectangle 371" class="cls-6" width="13.147" height="8.872" transform="translate(303.313 263.413)"/>
    <rect id="Rectangle_372" data-name="Rectangle 372" class="cls-6" width="13.147" height="8.872" transform="translate(338.806 263.413)"/>
    <rect id="Rectangle_373" data-name="Rectangle 373" class="cls-6" width="13.147" height="8.872" transform="translate(376.922 263.413)"/>
    <path id="Path_776" data-name="Path 776" class="cls-6" d="M975.279,413a32.923,32.923,0,0,0-2.147,8.872H965.92V413Z" transform="translate(-542.661 -258.008)"/>
    <rect id="Rectangle_374" data-name="Rectangle 374" class="cls-2" width="13.147" height="8.872" transform="translate(423.259 182.081)"/>
    <rect id="Rectangle_375" data-name="Rectangle 375" class="cls-6" width="13.147" height="8.872" transform="translate(423.259 209.188)"/>
    <rect id="Rectangle_376" data-name="Rectangle 376" class="cls-6" width="13.147" height="8.872" transform="translate(423.259 236.301)"/>
    <rect id="Rectangle_377" data-name="Rectangle 377" class="cls-6" width="13.147" height="8.872" transform="translate(423.259 263.413)"/>
    <rect id="Rectangle_378" data-name="Rectangle 378" class="cls-6" width="13.147" height="8.872" transform="translate(113.703 144.617)"/>
    <rect id="Rectangle_379" data-name="Rectangle 379" class="cls-2" width="13.147" height="8.872" transform="translate(113.703 164.507)"/>
    <rect id="Rectangle_380" data-name="Rectangle 380" class="cls-6" width="13.147" height="8.872" transform="translate(113.703 184.393)"/>
    <rect id="Rectangle_381" data-name="Rectangle 381" class="cls-6" width="13.147" height="8.872" transform="translate(113.703 204.284)"/>
    <rect id="Rectangle_382" data-name="Rectangle 382" class="cls-6" width="13.147" height="8.872" transform="translate(113.703 224.17)"/>
    <rect id="Rectangle_383" data-name="Rectangle 383" class="cls-6" width="13.147" height="8.872" transform="translate(113.703 244.06)"/>
    <rect id="Rectangle_384" data-name="Rectangle 384" class="cls-6" width="13.147" height="8.872" transform="translate(113.703 263.946)"/>
    <rect id="Rectangle_385" data-name="Rectangle 385" class="cls-6" width="13.147" height="8.872" transform="translate(40.746 196.391)"/>
    <rect id="Rectangle_386" data-name="Rectangle 386" class="cls-6" width="13.147" height="8.872" transform="translate(61.781 196.391)"/>
    <rect id="Rectangle_387" data-name="Rectangle 387" class="cls-6" width="13.147" height="8.872" transform="translate(40.746 219.577)"/>
    <rect id="Rectangle_388" data-name="Rectangle 388" class="cls-6" width="13.147" height="8.872" transform="translate(61.781 219.577)"/>
    <rect id="Rectangle_389" data-name="Rectangle 389" class="cls-6" width="13.147" height="8.872" transform="translate(40.746 242.764)"/>
    <rect id="Rectangle_390" data-name="Rectangle 390" class="cls-6" width="13.147" height="8.872" transform="translate(61.781 242.764)"/>
    <rect id="Rectangle_391" data-name="Rectangle 391" class="cls-6" width="65.726" height="7.93" transform="translate(187.969 205.226)"/>
    <rect id="Rectangle_392" data-name="Rectangle 392" class="cls-6" width="65.726" height="7.93" transform="translate(187.969 230.527)"/>
    <rect id="Rectangle_393" data-name="Rectangle 393" class="cls-6" width="65.726" height="7.93" transform="translate(187.969 255.833)"/>
    <path id="Path_777" data-name="Path 777" class="cls-1" d="M246.511,76.2V353.845q-2.965-.363-5.912-.8V75.92C242.572,75.957,244.539,76.058,246.511,76.2Z" transform="translate(-150.759 -75.879)"/>
    <path id="Path_778" data-name="Path 778" class="cls-1" d="M645.411,174.3V412.652l-5.911.069V173.58Q642.451,173.98,645.411,174.3Z" transform="translate(-366.291 -128.646)"/>
    <path id="Path_779" data-name="Path 779" class="cls-1" d="M547.572,552.046H45.39a37.333,37.333,0,0,1,1.025-5.916h494.2a48.667,48.667,0,0,1,6.96,5.916Z" transform="translate(-45.284 -329.941)"/>
    <path id="Path_780" data-name="Path 780" class="cls-1" d="M1038.4,503.06c1.926.984,3.907,1.94,5.916,2.887v76.5c-1.967.331-3.944.63-5.916.919Z" transform="translate(-581.823 -306.669)"/>
    <path id="Path_781" data-name="Path 781" class="cls-4" d="M334.434,228.481H333.3V227.35h-.2v1.131H331.97v.2H333.1v1.131h.2v-1.131h1.131Z" transform="translate(-179.392 -122.841)"/>
    <path id="Path_782" data-name="Path 782" class="cls-4" d="M845.714,177.351h-1.131V176.22h-.207v1.131H843.25v.2h1.126v1.131h.207v-1.131h1.131Z" transform="translate(-455.645 -95.214)"/>
    <path id="Path_783" data-name="Path 783" class="cls-4" d="M392.7,167.4h-1.131V166.27h-.207V167.4H390.24v.207h1.126v1.126h.207v-1.126H392.7Z" transform="translate(-210.876 -89.838)"/>
    <circle id="Ellipse_190" data-name="Ellipse 190" class="cls-4" cx="0.74" cy="0.74" r="0.74" transform="translate(179.364 149.099)"/>
    <circle id="Ellipse_191" data-name="Ellipse 191" class="cls-4" cx="0.74" cy="0.74" r="0.74" transform="translate(348.146 82.978)"/>
    <circle id="Ellipse_192" data-name="Ellipse 192" class="cls-4" cx="0.74" cy="0.74" r="0.74" transform="translate(422.519 118.028)"/>
    <circle id="Ellipse_193" data-name="Ellipse 193" class="cls-4" cx="0.74" cy="0.74" r="0.74" transform="translate(306.044 124.377)"/>
    <path id="Path_784" data-name="Path 784" class="cls-7" d="M553.021,405.172s-15.772,3.815-22.014,10.954a21.24,21.24,0,0,1-8.4,5.332v-10.77c3.608-6.059,7.245-12.8,7.245-12.8.165-.331,1.48-4.978,1.48-4.978,2.96-2.326-.166-10.453-.166-10.453s1.811-5.144.823-6.141-.166-3.65.657-4.813a6,6,0,0,0,.657-3.65c0-.993-1.315-2.491-3.452-3.319s.165-2.156,1.48-2.491,1.646-3.484.165-5.144.166-2.652.984-4.477-2.643-1.494-2.643-1.494V334.15h0s-.988-5.475-1.972-15.1-4.767-10.619-4.767-10.619a43.3,43.3,0,0,1-5.916-2.326,40.519,40.519,0,0,0-6.242-2.321,32.134,32.134,0,0,1-8.054-1.112,24.606,24.606,0,0,0-5.493-1.191l-.593-.294a21.526,21.526,0,0,1-9.971-10.573c-.1-.23-.193-.46-.285-.68a23.2,23.2,0,0,0,2.625-3.484v1.922h0v.041c2.62-4.629,10.223-5.686,10.945-10.973a5.511,5.511,0,0,0,.051-.726v-.565c-.1-1.476-.6-2.947-.7-4.436a8.5,8.5,0,0,1,0-1.282v.027c.34-4.1,3.434-7.677,4.85-11.662a13.978,13.978,0,0,0,.74-3.319v-.032c.037-.34.06-.685.069-1.03v-.97A15.528,15.528,0,0,0,500,242.227c-2.62-2.275-6.082-3.705-7.9-6.679-.846-1.379-1.26-3.016-2.184-4.349-1.738-2.519-4.928-3.544-7.948-3.907s-6.123-.244-9.01-1.191c-2.05-.671-3.907-1.862-5.976-2.459a11.432,11.432,0,0,0-12.278,4.427c-1.089,1.591-1.8,3.494-3.273,4.735-3.011,2.547-8.118,1.443-10.757,4.376-1.448,1.614-1.613,3.811-1.439,6.054v.083a5.085,5.085,0,0,0,.051.519v.244a.759.759,0,0,0,.032.262c.092.8.207,1.6.308,2.377a3.092,3.092,0,0,0,.041.354l.083.722a5.043,5.043,0,0,0,.046.524c.018.175.032.46.046.653a4.54,4.54,0,0,0,.032.515,35.47,35.47,0,0,1-3.769,17.7c-2.487,4.877-6.183,9.373-6.826,14.82a15.969,15.969,0,0,0-.074,2.689v.317c0,.106.028.322.041.483s.037.372.06.556a2.5,2.5,0,0,0,.041.317c.032.244.069.487.11.735l.028.156c.653,3.714,2.133,7.355,2.919,11.106a30.045,30.045,0,0,1,.588,4.2.059.059,0,0,0,0,.028c.028.46.051.9.064,1.347v1.839a29.18,29.18,0,0,1-3.829,1.177c-2.3.331-9.042,6.307-8.55,7.815s-3.016,11.952-3.112,12.269h0l-5.516,38.154s-2.928,2.822-2.013,4.647-.179,4.978-.179,4.978-4.946,2.156-3.848,3.484.6,3.815-.156,5.475-1.99,4.647,0,5.144.34,6.973.34,6.973,6.937-.8,6.436,3.319c-.165,1.31,4.85,4.914,6.941,6.357V425.4a60.592,60.592,0,0,1-8.215-2.79c-4.27-1.99-28.261-5.806-33.52,5.645s7.231,26.717,10.352,28.376c0,0,2.96,2.321,3.618,3.484s4.436,1.494,4.436,1.494,3.944,1.839,4.928,2.818c.726.735,6.734,2.643,13.855,4.137h0s-5.751,13.239,3.632,12.149S432.611,475,439.226,475c2.643,0,7.553-.372,12.494-.814a33.182,33.182,0,0,1,3.677.869,47.257,47.257,0,0,0,8.541,1.839s7.4,3.981,11.34,2.983a2.508,2.508,0,0,0,.892-.46h.092a5.172,5.172,0,0,0,2.376-2.036c4.932.506,10.573,1.223,12.669,2.041,4.087,1.577,33.318-.607,33.318-.607s18.884.372,24.294,2.009,3.489-16.709-6.5-18.773a40.961,40.961,0,0,0-8.095-.8,18.154,18.154,0,0,0,1.889-2.3c3.595-.326,5.976-.529,5.976-.529s9.529-4.647,14.953-7.47a34.118,34.118,0,0,0,9.194-7.3s4.762-2.988,6.734-4.137,2.956-4.978,2.956-4.978C590.977,400.685,553.021,405.172,553.021,405.172Zm-42.787-42.466v-1.673c.533.377.455.97,0,1.669Zm.156,11.736c.4.524.786,1,1.062,1.379,1.062,1.379-.86,2.023-.722,4.307.032.51.078,1.223.124,2.013h0c-.2-3.3-.368-6.008-.464-7.7Z" transform="translate(-224.222 -155.485)"/>
    <path id="Path_785" data-name="Path 785" class="cls-8" d="M424.893,658.629s-9.194-2.138-13.473-4.11-28.261-5.751-33.52,5.59,7.231,26.45,10.352,28.1,33.52-20.874,33.52-20.874l23.977,10.113,4.6-15.694Z" transform="translate(-224.255 -387.305)"/>
    <rect id="Rectangle_394" data-name="Rectangle 394" class="cls-8" width="104.38" height="36.31" rx="18.155" transform="translate(210.783 274.445)"/>
    <path id="Path_786" data-name="Path 786" class="cls-9" d="M608.08,691.013a18.116,18.116,0,0,1-3.025,10.04,18.391,18.391,0,0,1-2.3,2.8,18.1,18.1,0,0,1-12.839,5.318H521.858a18.158,18.158,0,1,1,0-36.315h68.065A18.158,18.158,0,0,1,608.08,691.013Z" transform="translate(-292.917 -398.415)"/>
    <path id="Path_787" data-name="Path 787" class="cls-10" d="M525.75,714.66s-10.467,2.689-19.008,2.57-48.492,16.48-48.492,16.48-5.751,13.11,3.632,12.025,13.951-5.636,20.566-5.636,27.425-2.3,27.425-2.3L529.9,723.008Z" transform="translate(-267.417 -421)"/>
    <path id="Path_788" data-name="Path 788" class="cls-10" d="M563.452,390.405l-18.773,3.7-1.218.244s-14.843-3.944-15.335-4.275S514.16,371.59,514.16,371.59s6.813.074,12.163-3.011c.193-.11.382-.23.57-.345a11.86,11.86,0,0,0,5.057-6.2c.1-.271.179-.552.257-.846a16.678,16.678,0,0,0-.156-8.081c-1.839-7.663,2.39-9.773,7.994-9.589,8.1.267,19.114,5.319,19.114,5.319a22.464,22.464,0,0,0,1.733,7.493c.087.221.184.46.285.671a21.393,21.393,0,0,0,9.971,10.458l.593.294c.6.285,1.227.556,1.88.8C587.935,373.976,563.452,390.405,563.452,390.405Z" transform="translate(-298.568 -220.46)"/>
    <path id="Path_789" data-name="Path 789" class="cls-9" d="M581.743,357a23.678,23.678,0,0,1-29.227,5.034,15.927,15.927,0,0,0,.1-8.927c-4.436-18.732,27.121-4.271,27.121-4.271A22.768,22.768,0,0,0,581.743,357Z" transform="translate(-319.117 -220.463)"/>
    <path id="Path_790" data-name="Path 790" class="cls-10" d="M573.745,308.834a23.5,23.5,0,0,1-3.586,12.517,23.163,23.163,0,0,1-2.625,3.452,23.527,23.527,0,0,1-16.025,7.631c-.46.032-.951.046-1.43.046a23.66,23.66,0,1,1,23.66-23.66Z" transform="translate(-305.193 -188.934)"/>
    <path id="Path_791" data-name="Path 791" class="cls-9" d="M563.452,418.606l-18.773,3.7-1.218.244s-14.843-3.944-15.335-4.275-13.965-18.484-13.965-18.484,6.813.074,12.163-3.011c.193-.11.382-.23.57-.345a22.037,22.037,0,0,0,16.015,7,23.127,23.127,0,0,0,3.356-.244c2.639-.4,5.3-.667,7.957-.919,5.089-.533,12.871-2.078,16.958-6.574l.593.294c.6.285,1.227.556,1.88.8C587.935,402.177,563.452,418.606,563.452,418.606Z" transform="translate(-298.568 -248.661)"/>
    <path id="Path_792" data-name="Path 792" class="cls-2" d="M558.572,466.886c.161,3.618,2.795,44.364,2.795,44.364H479.373l.556-25.655.46-20.52.147-6.734.657-23.329-2.377-2.1L465.9,421.533h0c.1-.3,3.6-10.688,3.112-12.149s6.247-7.392,8.55-7.723a29.949,29.949,0,0,0,3.852-1.172c3.875-1.379,9.047-3.365,9.617-3.052.8.432,8.867-.317,9.194-.349h0a21.992,21.992,0,0,0,16.576,7.645,22.517,22.517,0,0,0,3.342-.267c2.639-.4,5.3-.667,7.957-.942,5.346-.556,13.657-2.234,17.551-7.263a24.875,24.875,0,0,1,5.493,1.177,32.609,32.609,0,0,0,8.054,1.1,40.869,40.869,0,0,1,6.243,2.3,43.658,43.658,0,0,0,5.916,2.3s3.779.984,4.767,10.513,1.986,14.954,1.986,14.954l-19.537,16.921S558.411,463.254,558.572,466.886Z" transform="translate(-272.493 -248.963)"/>
    <path id="Path_793" data-name="Path 793" class="cls-10" d="M417.326,519.5l2.873,4.6,10.761,3.792,7.4-13.487-6.817-4.6-10.927-4.27-6.243,3.613Z" transform="translate(-223.914 -273.146)"/>
    <path id="Path_794" data-name="Path 794" class="cls-8" d="M663.986,638.43s15.28-1.149,21.527-8.214,22.014-10.844,22.014-10.844,37.956-4.436,22.984,29.084c0,0-.984,3.779-2.956,4.928s-6.734,4.11-6.734,4.11l-58.3-5.093Z" transform="translate(-378.73 -369.409)"/>
    <path id="Path_795" data-name="Path 795" class="cls-9" d="M658.955,696.438a18.117,18.117,0,0,1-3.025,10.039c-9.81.869-31.534,2.91-36.081,4.178-5.585,1.549-16.889-1.149-18.125-1.453l-.115-.028s-2.179-6.61-3.218-10.839c-.46-1.921-.7-3.351-.4-3.457.988-.326,10.026-2.795,9.86-1.379s27.121-10.6,27.121-10.6l.837,10.518C638.582,696.589,658.955,691.873,658.955,696.438Z" transform="translate(-343.792 -403.84)"/>
    <path id="Path_796" data-name="Path 796" class="cls-8" d="M688.219,688.221,687.07,692.5a34.06,34.06,0,0,1-9.194,7.226c-5.424,2.795-14.954,7.4-14.954,7.4s-35,2.956-40.912,4.6-18.24-1.48-18.24-1.48-4.6-13.965-3.613-14.3,10.021-2.79,9.86-1.379,27.121-10.6,27.121-10.6Z" transform="translate(-344.96 -404.412)"/>
    <path id="Path_797" data-name="Path 797" class="cls-10" d="M579.92,754.722s17.2,1.2,21.293,2.758,33.318-.6,33.318-.6,18.884.368,24.294,1.986,3.489-16.549-6.5-18.585-24.055.961-24.055.961-15.877-2.046-17.8-2.3-14.609.115-14.609.115Z" transform="translate(-334.099 -434.074)"/>
    <path id="Path_798" data-name="Path 798" class="cls-9" d="M432.87,674.72s22.736,2.046,28.988,5.774Z" transform="translate(-254.646 -399.42)"/>
    <path id="Path_799" data-name="Path 799" class="cls-9" d="M712.242,642.28s-17.8,4.33-24.782,10.7Z" transform="translate(-392.205 -381.892)"/>
    <path id="Path_800" data-name="Path 800" class="cls-9" d="M435.75,663.47c.363.12,10.467,1.443,10.223,2.4S435.75,663.47,435.75,663.47Z" transform="translate(-256.202 -393.341)"/>
    <path id="Path_801" data-name="Path 801" class="cls-9" d="M401.21,706.642l1.315,4.932s2.956,2.3,3.613,3.448,4.436,1.48,4.436,1.48,3.944,1.807,4.932,2.79,11.662,4.11,21.688,5.424,28.588,3.779,32.532,5.093a47.342,47.342,0,0,0,8.546,1.807s7.392,3.944,11.336,2.961,10.678-18.9,10.678-18.9S474.327,709.6,473.5,707.63s-25.8-11.17-25.8-11.17l-14.788.349Z" transform="translate(-237.54 -411.166)"/>
    <path id="Path_802" data-name="Path 802" class="cls-8" d="M399.06,697.851l1.315,4.932s2.96,2.3,3.618,3.448,4.436,1.48,4.436,1.48,3.944,1.807,4.928,2.795,11.667,4.1,21.688,5.42,28.592,3.779,32.536,5.093a47.507,47.507,0,0,0,8.541,1.8s7.4,3.939,11.34,2.956,10.678-18.9,10.678-18.9-25.963-6.077-26.781-8.049-37.464-16.921-37.464-16.921L422.4,679.28Z" transform="translate(-236.378 -401.884)"/>
    <path id="Path_803" data-name="Path 803" class="cls-2" d="M453.74,447.67l-2.873,1.646-5.516,37.791s-2.928,2.795-2.013,4.6-.179,4.928-.179,4.928-4.946,2.138-3.847,3.452.6,3.779-.156,5.42-1.99,4.6,0,5.093.34,6.9.34,6.9,6.937-.791,6.436,3.282c-.207,1.646,7.842,6.9,7.842,6.9s-9.148-16.595,11.345-14.3l1.761-9.354s1.761-5.268,0-6.9.4-9.446.4-9.446l.386-33.929Z" transform="translate(-257.459 -276.741)"/>
    <path id="Path_804" data-name="Path 804" class="cls-9" d="M462.44,553.84c.363.6,11.428,1.839,12.149,3.8S462.44,553.84,462.44,553.84Z" transform="translate(-270.623 -334.106)"/>
    <path id="Path_805" data-name="Path 805" class="cls-9" d="M454.85,569.6s1.5-4.693,5.057-3.852S454.85,569.6,454.85,569.6Z" transform="translate(-266.522 -340.488)"/>
    <path id="Path_806" data-name="Path 806" class="cls-9" d="M450.67,582.342s2.643-6.256,6.252-5.774S450.67,582.342,450.67,582.342Z" transform="translate(-264.264 -346.373)"/>
    <path id="Path_807" data-name="Path 807" class="cls-10" d="M674.891,579.777l-1.154,6.9s-11.828,21.692-13.965,22.019-13.79-14.457-13.79-14.457l-3.121-14.462,12.287-2.331,5.456-5.392S674.394,573.369,674.891,579.777Z" transform="translate(-368.107 -343.946)"/>
    <path id="Path_808" data-name="Path 808" class="cls-2" d="M679.922,456.462l4.436,3.121v16.595s3.452-.331,2.629,1.48-2.464,2.79-.984,4.436,1.149,4.762-.165,5.093-3.613,1.641-1.48,2.464,3.452,2.3,3.452,3.287a5.883,5.883,0,0,1-.657,3.613c-.823,1.149-1.641,3.779-.657,4.767s-.823,6.077-.823,6.077,3.126,8.054.165,10.352c0,0-1.315,4.6-1.48,4.928,0,0,2.073-15.992-18.6-9.231,0,0-.381-6.1-.524-8.352s1.784-2.919.722-4.266-3.719-4.441-2.464-5.259.823-2.3.326-3.452-2.229-1.149-.657-2.547,2.505-2.708,1.581-3.365-2.528-2.8-1.25-3.783,1.315-15.28,1.315-15.28S670.066,446.11,679.922,456.462Z" transform="translate(-378.728 -279.944)"/>
    <path id="Path_809" data-name="Path 809" class="cls-9" d="M695.84,520.434s6.316-1.715,6.523,0S695.84,520.434,695.84,520.434Z" transform="translate(-396.733 -315.645)"/>
    <path id="Path_810" data-name="Path 810" class="cls-9" d="M680.4,530.28s8.661-2.165,9.741-.483S680.4,530.28,680.4,530.28Z" transform="translate(-388.39 -320.77)"/>
    <path id="Path_811" data-name="Path 811" class="cls-9" d="M676.21,540.833s12.991-1.807,13.832.841S676.21,540.833,676.21,540.833Z" transform="translate(-386.126 -326.753)"/>
    <path id="Path_812" data-name="Path 812" class="cls-9" d="M680.4,553.84c.483.12,12.508.961,12.747,3.245S680.4,553.84,680.4,553.84Z" transform="translate(-388.39 -334.106)"/>
    <rect id="Rectangle_395" data-name="Rectangle 395" class="cls-1" width="103.006" height="58.504" rx="10.47" transform="translate(195.384 227.139)"/>
    <circle id="Ellipse_194" data-name="Ellipse 194" class="cls-4" cx="3.797" cy="3.797" r="3.797" transform="translate(243.09 252.596)"/>
    <path id="Path_813" data-name="Path 813" class="cls-9" d="M507.72,491.94s9.874,7.548,17.509,1.8C525.229,493.737,512.321,494.91,507.72,491.94Z" transform="translate(-295.089 -300.661)"/>
    <path id="Path_814" data-name="Path 814" class="cls-9" d="M616.48,496.36s9.869,7.543,17.5,1.793C633.985,498.153,621.081,499.329,616.48,496.36Z" transform="translate(-353.853 -303.049)"/>
    <path id="Path_815" data-name="Path 815" class="cls-9" d="M549.032,308.881a23.5,23.5,0,0,1-3.585,12.517c-.2-6.587-1.747-13.179-5.332-18.682-3.282-5.057-13.262-13.878-20.12-11.419a4.859,4.859,0,0,0-3,3.218c-.68,2.583,1.31,3.677,2.588,5.714a17.519,17.519,0,0,1,2.39,11.8,16.452,16.452,0,0,1-.345,1.637c-1.08,4.054-3.553,8.693-1,12.016,1.779,2.3,5.6,3.117,6.123,5.976a3.49,3.49,0,0,1,.046.818c-.12,1.935-1.77,3.641-2.492,5.539-.846,2.239-.368,4.464.51,6.711,1.14,2.933,2.96,5.9,3.4,9s-.51,5.976-1.632,8.886a39.662,39.662,0,0,0-2.712,8.366c-.8,5.461,1.209,11.777-2.229,16.089a2.408,2.408,0,0,1-1.5,1.016c-2.2.23-1.839-3.728-3.6-5.057.188,2.3.368,4.7-.46,6.849s-3.006,3.981-5.286,3.618l-.786-5.162a14.908,14.908,0,0,1-5.47,3.425,39.872,39.872,0,0,1,5.709-15.445c-5.787,2.786-9.161,8.817-12.172,14.489-1.876,3.544-3.82,7.415-3.163,11.373.267,1.614.961,3.149,1.112,4.772s-.437,3.521-1.949,4.137a3.524,3.524,0,0,1-3.811-1.181l-.166-.2c-.092-.119-.179-.244-.262-.368a6.162,6.162,0,0,1-.437-.781,15.125,15.125,0,0,1-.919-3.02l-.1-.46c-1.531-6.716-2.91-13.643-1.788-20.438.414-2.5,1.168-4.983,1.076-7.52a13.79,13.79,0,0,0-.864-4.183c-1.342-3.76-3.926-7.212-5.4-11a.326.326,0,0,1-.037-.083c-.772-2-1.154-4.51.276-6.118a12.078,12.078,0,0,1,2.758-1.839c2.859-1.862,4.137-5.4,4.666-8.771a29.831,29.831,0,0,0,.359-4.6c3.875-1.379,9.047-3.365,9.617-3.052.8.432,8.867-.317,9.194-.349a12.078,12.078,0,0,0,5.645-6.546c.1-.271.179-.552.257-.846A23.66,23.66,0,1,1,549.036,308.9Z" transform="translate(-280.48 -188.982)"/>
    <path id="Path_816" data-name="Path 816" class="cls-1" d="M521.628,281.63c-1.085,4.054-3.553,8.693-1,12.021,1.779,2.3,5.6,3.112,6.114,5.976.409,2.3-1.618,4.192-2.436,6.353-1.949,5.162,3.135,10.237,3.907,15.7.841,5.93-3.48,11.331-4.339,17.257-.8,5.461,1.209,11.772-2.229,16.089a2.381,2.381,0,0,1-1.5,1.016c-2.2.234-1.839-3.724-3.6-5.057.188,2.3.368,4.7-.46,6.849s-3.006,3.976-5.286,3.618l-.786-5.167a14.888,14.888,0,0,1-5.47,3.425,39.9,39.9,0,0,1,5.7-15.441c-5.787,2.786-9.157,8.817-12.168,14.485-1.88,3.544-3.82,7.419-3.167,11.377.267,1.614.961,3.144,1.112,4.771s-.437,3.517-1.949,4.137a3.591,3.591,0,0,1-3.976-1.379,10.367,10.367,0,0,1-1.623-4.174c-1.572-6.858-3.038-13.938-1.894-20.879.414-2.505,1.167-4.988,1.076-7.521-.2-5.548-4.294-10.113-6.289-15.275-.777-2.009-1.154-4.509.276-6.118a12.08,12.08,0,0,1,2.758-1.839c2.855-1.866,4.137-5.4,4.661-8.771a30.394,30.394,0,0,0-.308-10.977c-1.154-5.4-3.8-10.678-3.144-16.162.644-5.4,4.339-9.846,6.826-14.678a34.725,34.725,0,0,0,3.521-20.3c-.427-3.241-1.177-6.992,1.02-9.414,2.639-2.905,7.746-1.811,10.757-4.33,1.471-1.227,2.184-3.117,3.273-4.689a11.492,11.492,0,0,1,12.278-4.385c2.069.593,3.926,1.77,5.976,2.436,2.887.919,5.976.818,9.01,1.181s6.21,1.379,7.948,3.866c.919,1.324,1.338,2.937,2.183,4.307,1.816,2.942,5.277,4.358,7.9,6.615a15.326,15.326,0,0,1,4.312,16.369c-1.563,4.353-5.181,8.205-4.873,12.821.124,1.9.919,3.76.671,5.64-.726,5.236-8.325,6.279-10.95,10.867.211-7.52-1.232-15.266-5.337-21.568-3.282-5.057-13.262-13.882-20.12-11.423a4.877,4.877,0,0,0-3,3.218c-.68,2.579,1.31,3.677,2.588,5.714A17.376,17.376,0,0,1,521.628,281.63Z" transform="translate(-280.478 -157.924)"/>
    <g id="Group_21" data-name="Group 21" class="cls-11" transform="translate(200.215 87.62)">
      <path id="Path_817" data-name="Path 817" d="M495.071,377.236a30.131,30.131,0,0,0-.657-7.033c-.979-4.6-3.029-9.1-3.218-13.712-.267,5.139,2.137,10.113,3.218,15.17a30.173,30.173,0,0,1,.657,5.576Z" transform="translate(-486.364 -315.095)"/>
      <path id="Path_818" data-name="Path 818" d="M525.561,480.225c.4-.731.814-1.457,1.26-2.165-5.783,2.786-9.157,8.817-12.168,14.489-1.742,3.277-3.53,6.845-3.264,10.494.221-3.13,1.761-6.183,3.264-9.019C517.438,488.78,520.536,483.236,525.561,480.225Z" transform="translate(-497.272 -380.782)"/>
      <path id="Path_819" data-name="Path 819" d="M502.45,526.767a3.489,3.489,0,0,1-1.922,2.882,3.589,3.589,0,0,1-3.972-1.379,10.41,10.41,0,0,1-1.627-4.174,75.056,75.056,0,0,1-2.3-14.917c-.11,5.484,1.057,11.009,2.3,16.4a10.343,10.343,0,0,0,1.627,4.174,3.591,3.591,0,0,0,3.972,1.379c1.512-.621,2.105-2.51,1.954-4.137A.56.56,0,0,1,502.45,526.767Z" transform="translate(-487.147 -397.596)"/>
      <path id="Path_820" data-name="Path 820" d="M567.807,334.2a16.68,16.68,0,0,1-.533,3.494c-.8,3-2.363,6.33-2.082,9.194.221-2.5,1.416-5.222,2.082-7.727A16.612,16.612,0,0,0,567.807,334.2Z" transform="translate(-526.338 -303.052)"/>
      <path id="Path_821" data-name="Path 821" d="M513.61,275.652a34.481,34.481,0,0,0-.285-5.245c-.17-1.278-.386-2.639-.46-3.967a28.669,28.669,0,0,0,.46,5.447A34.419,34.419,0,0,1,513.61,275.652Z" transform="translate(-498.073 -266.44)"/>
      <path id="Path_822" data-name="Path 822" d="M577.512,384.055a.158.158,0,0,0-.032-.115c-.349,1.71-1.756,3.273-2.4,4.992a7,7,0,0,0-.4,3.218,6.607,6.607,0,0,1,.4-1.738C575.89,388.247,577.917,386.335,577.512,384.055Z" transform="translate(-531.456 -329.927)"/>
      <path id="Path_823" data-name="Path 823" d="M487.674,458.924c-.2-5.548-4.293-10.113-6.293-15.275a10.469,10.469,0,0,1-.644-2.528,8.54,8.54,0,0,0,.643,4.009c1.967,5.093,5.948,9.575,6.27,15C487.674,459.728,487.688,459.323,487.674,458.924Z" transform="translate(-480.709 -360.822)"/>
      <path id="Path_824" data-name="Path 824" d="M582.662,304.075c-3.287-5.057-13.262-13.883-20.12-11.423a4.882,4.882,0,0,0-3,3.218,3.479,3.479,0,0,0-.051,1.728.955.955,0,0,1,.051-.248,4.873,4.873,0,0,1,3-3.218c6.858-2.459,16.834,6.38,20.12,11.423,3.714,5.709,5.245,12.6,5.346,19.435C588.105,317.658,586.639,310.179,582.662,304.075Z" transform="translate(-523.229 -280.374)"/>
      <path id="Path_825" data-name="Path 825" d="M632.557,341.164c-.722,5.222-8.274,6.275-10.927,10.835v1.508c2.62-4.6,10.223-5.631,10.945-10.867a6.23,6.23,0,0,0,0-1.549A.4.4,0,0,1,632.557,341.164Z" transform="translate(-556.851 -306.775)"/>
      <path id="Path_826" data-name="Path 826" d="M648.791,296.206c-1.563,4.358-5.181,8.205-4.873,12.825v.2c.34-4.068,3.434-7.6,4.85-11.547a14.472,14.472,0,0,0,.8-5.626,14.054,14.054,0,0,1-.781,4.146Z" transform="translate(-568.884 -280.283)"/>
      <path id="Path_827" data-name="Path 827" d="M563.8,492.877a2.39,2.39,0,0,1-1.5,1.02c-2.2.235-1.839-3.723-3.6-5.056.046.524.087,1.053.115,1.581,1.636,1.416,1.333,5.181,3.484,4.951a2.367,2.367,0,0,0,1.5-1.016c1.963-2.464,2.151-5.576,2.1-8.807C565.853,488.244,565.462,490.813,563.8,492.877Z" transform="translate(-522.849 -384.829)"/>
      <path id="Path_828" data-name="Path 828" d="M544.117,503.855c-.837,2.156-3.006,3.981-5.291,3.618q-.391-2.579-.781-5.167a14.994,14.994,0,0,1-5.2,3.324c-.1.524-.2,1.053-.276,1.581a14.9,14.9,0,0,0,5.475-3.425q.391,2.588.781,5.167c2.3.359,4.454-1.462,5.291-3.618a11.778,11.778,0,0,0,.6-4.675A9.944,9.944,0,0,1,544.117,503.855Z" transform="translate(-508.73 -392.993)"/>
      <path id="Path_829" data-name="Path 829" d="M574.4,448.924a26.268,26.268,0,0,0-.2,4.188,20.972,20.972,0,0,1,.2-2.708c.823-5.65,4.781-10.821,4.422-16.425C578.506,439.046,575.15,443.776,574.4,448.924Z" transform="translate(-531.218 -356.964)"/>
    </g>
    <path id="Path_830" data-name="Path 830" class="cls-2" d="M871.647,637s-3.121,14.54,10.77,16.264l.86-1.613S872.521,641.537,871.647,637Z" transform="translate(-491.562 -379.039)"/>
    <path id="Path_831" data-name="Path 831" class="cls-2" d="M892.777,642.962l-3.218.685-.322.069s-8.619-7-8.509-22.617a39.083,39.083,0,0,0,4.114,6.514C888.249,632.132,892.133,638.168,892.777,642.962Z" transform="translate(-496.631 -370.448)"/>
    <path id="Path_832" data-name="Path 832" class="cls-2" d="M900.293,638.145a2.037,2.037,0,0,1-1.738.225c-8.274-1.94-5.493-28.96-5.493-28.96.46.216.961,3.677,2.868,8.09C899.277,625.31,902.954,636.186,900.293,638.145Z" transform="translate(-503.052 -364.132)"/>
    <path id="Path_833" data-name="Path 833" class="cls-2" d="M932.633,637s.538,14.54-13.354,16.264l-.86-1.613S931.774,641.537,932.633,637Z" transform="translate(-516.996 -379.039)"/>
    <path id="Path_834" data-name="Path 834" class="cls-2" d="M923.476,621.1c.1,15.629-11.1,22.617-11.1,22.617l-.322-.069-3.218-.685c.639-4.794,4.533-10.83,7.943-15.349a34.938,34.938,0,0,1,6.693-6.514Z" transform="translate(-511.82 -370.448)"/>
    <path id="Path_835" data-name="Path 835" class="cls-2" d="M909.658,636.745a5.14,5.14,0,0,1-1.839,1.416h0a3.543,3.543,0,0,1-.676.225c-2.041.46-2.758-.993-2.639-3.494.193-4.454,2.993-12.177,5.516-17.928a22.346,22.346,0,0,1,5.208-7.525C915.2,609.417,915.078,630.466,909.658,636.745Z" transform="translate(-509.471 -364.148)"/>
    <path id="Path_836" data-name="Path 836" class="cls-2" d="M905.368,588.77s-9.263,32.849-1.292,37.8S907.413,591.68,905.368,588.77Z" transform="translate(-507.498 -352.98)"/>
    <path id="Path_837" data-name="Path 837" class="cls-9" d="M871.647,637s-3.121,14.54,10.77,16.264l.86-1.613S872.521,641.537,871.647,637Z" transform="translate(-491.562 -379.039)"/>
    <path id="Path_838" data-name="Path 838" class="cls-9" d="M892.777,642.962l-3.218.685-.322.069s-8.619-7-8.509-22.617a39.083,39.083,0,0,0,4.114,6.514C888.249,632.132,892.133,638.168,892.777,642.962Z" transform="translate(-496.631 -370.448)"/>
    <path id="Path_839" data-name="Path 839" class="cls-9" d="M900.293,638.145a2.037,2.037,0,0,1-1.738.225c-8.274-1.94-5.493-28.96-5.493-28.96.46.216.961,3.677,2.868,8.09C899.277,625.31,902.954,636.186,900.293,638.145Z" transform="translate(-503.052 -364.132)"/>
    <path id="Path_840" data-name="Path 840" class="cls-9" d="M932.633,637s.538,14.54-13.354,16.264l-.86-1.613S931.774,641.537,932.633,637Z" transform="translate(-516.996 -379.039)"/>
    <path id="Path_841" data-name="Path 841" class="cls-9" d="M923.476,621.1c.1,15.629-11.1,22.617-11.1,22.617l-.322-.069-3.218-.685c.639-4.794,4.533-10.83,7.943-15.349a34.938,34.938,0,0,1,6.693-6.514Z" transform="translate(-511.82 -370.448)"/>
    <path id="Path_842" data-name="Path 842" class="cls-9" d="M909.658,636.745a5.14,5.14,0,0,1-1.839,1.416h0a3.543,3.543,0,0,1-.676.225c-2.041.46-2.758-.993-2.639-3.494.193-4.454,2.993-12.177,5.516-17.928a22.346,22.346,0,0,1,5.208-7.525C915.2,609.417,915.078,630.466,909.658,636.745Z" transform="translate(-509.471 -364.148)"/>
    <path id="Path_843" data-name="Path 843" class="cls-9" d="M905.368,588.77s-9.263,32.849-1.292,37.8S907.413,591.68,905.368,588.77Z" transform="translate(-507.498 -352.98)"/>
    <path id="Path_844" data-name="Path 844" class="cls-2" d="M871.905,637s-1.839,14.54,12.062,16.264l.86-1.613S872.779,641.537,871.905,637Z" transform="translate(-491.82 -379.039)"/>
    <path id="Path_845" data-name="Path 845" class="cls-2" d="M894.063,642.962l-3.218.685-.326.069s-9.911-7-9.8-22.617c0,0,2.537,2.721,5.406,6.514C889.536,632.132,893.42,638.168,894.063,642.962Z" transform="translate(-496.625 -370.448)"/>
    <path id="Path_846" data-name="Path 846" class="cls-9" d="M900.419,650.619l-3.218.685c-3.066-2.689-4.28-9.709-4.721-16.034C895.891,639.789,899.775,645.824,900.419,650.619Z" transform="translate(-502.98 -378.104)"/>
    <path id="Path_847" data-name="Path 847" class="cls-2" d="M901.986,638.145a2.037,2.037,0,0,1-1.737.225c-8.3-1.94-6.785-28.96-6.785-28.96.46.216,2.253,3.677,4.137,8.09C900.97,625.31,904.647,636.186,901.986,638.145Z" transform="translate(-503.453 -364.132)"/>
    <path id="Path_848" data-name="Path 848" class="cls-2" d="M934.152,637s1.839,14.54-12.062,16.264l-.86-1.613S933.292,641.537,934.152,637Z" transform="translate(-518.515 -379.039)"/>
    <path id="Path_849" data-name="Path 849" class="cls-2" d="M924.994,621.1c.1,15.629-9.805,22.617-9.805,22.617l-.322-.069-3.218-.685c.644-4.794,4.532-10.83,7.943-15.349C922.452,623.812,924.994,621.1,924.994,621.1Z" transform="translate(-513.338 -370.448)"/>
    <path id="Path_850" data-name="Path 850" class="cls-9" d="M919.58,635.27c-.414,5.9-1.494,12.411-4.114,15.432a5.283,5.283,0,0,1-.6.6l-3.218-.685C912.271,645.824,916.169,639.789,919.58,635.27Z" transform="translate(-513.338 -378.104)"/>
    <path id="Path_851" data-name="Path 851" class="cls-2" d="M912.463,636.745a5.138,5.138,0,0,1-1.839,1.416h0a3.585,3.585,0,0,1-.68.225c-2.041.46-2.758-.993-2.639-3.494.2-4.454,2.993-12.177,5.516-17.928,1.811-4.165,3.475-7.318,3.917-7.525C916.715,609.417,917.882,630.466,912.463,636.745Z" transform="translate(-510.984 -364.148)"/>
    <path id="Path_852" data-name="Path 852" class="cls-9" d="M906.427,647.654a2.3,2.3,0,0,1-1.31-.418c-3.9-2.432-3.981-11.556-3.052-20.226C905.411,634.82,909.088,645.7,906.427,647.654Z" transform="translate(-507.894 -373.641)"/>
    <path id="Path_853" data-name="Path 853" class="cls-9" d="M912.478,645.59c-.46.97-1.053,1.485-1.839,1.416h0a2.638,2.638,0,0,1-1.112-.418,5.922,5.922,0,0,1-2.206-2.85c.2-4.454,2.993-12.177,5.516-17.928C913.709,633.8,914.008,642.3,912.478,645.59Z" transform="translate(-510.999 -372.993)"/>
    <path id="Path_854" data-name="Path 854" class="cls-2" d="M906.526,588.77s-7.971,32.849,0,37.8S908.572,591.68,906.526,588.77Z" transform="translate(-508.656 -352.98)"/>
    <path id="Path_855" data-name="Path 855" class="cls-12" d="M859.861,591.66H826.69v5.493h5.061l.124.648,2.027,10.66h19.284l2.027-10.66.124-.648h4.523Z" transform="translate(-446.697 -319.683)"/>
    <path id="Path_856" data-name="Path 856" class="cls-9" d="M859.831,591.66H826.66v5.493h5.061l.124.648,2.027,10.66h19.284l2.027-10.66.124-.648h4.523Z" transform="translate(-446.681 -319.683)"/>
    <path id="Path_857" data-name="Path 857" class="cls-12" d="M864.021,598.69l-.556,2.91-2.027,10.66H842.153l-2.027-10.66-.556-2.91Z" transform="translate(-453.656 -323.482)"/>
    <path id="Path_858" data-name="Path 858" class="cls-9" d="M864.021,598.69l-.556,2.91H840.126l-.556-2.91Z" transform="translate(-453.656 -323.482)"/>
    <rect id="Rectangle_396" data-name="Rectangle 396" class="cls-12" width="33.171" height="5.493" transform="translate(381.285 271.977)"/>
    <path id="Path_859" data-name="Path 859" class="cls-2" d="M294.582,586.67a8.482,8.482,0,0,0-1.122,2.115c-.069.184-.138.4-.207.6a1.632,1.632,0,0,0-.391-.133,5.426,5.426,0,0,0-1.756-.152c0-.23.023-.46.032-.722.074-2.6-.234-6.219-2.712-4.689-2.377,1.48-.68,3.935.855,5.516.133.138.262.262.391.386-1.379,1.007-1.664,3.319-1.9,5.741s-2.3,5.057-3.65,6.573c-.133.152-.262.29-.386.418a4.955,4.955,0,0,0-3.963-1.021l-.184-.671c-1.1-3.985-3.4-10.89-6.321-12.411l.386-.487c1.241-1.627,2.639-4.041.575-4.657s-2.252,2.092-2.138,4.137a6.948,6.948,0,0,0,.06.722,3.048,3.048,0,0,0-2.165,1.053c-.1-.12-.2-.244-.317-.377-1.673-1.981-4.749-5.112-5.677-2.758-.864,2.206,1.839,5.056,3.742,6.739l.12.1c-1.278,5.185,4.293,9.405,7.3,11.253.133.087.262.165.386.239-4.137,4.877-6.7,14.025-6.7,14.025l11.612,2.11s7.69-6.633,6.707-12.871h.078c7.681-1.54,9.428-9.732,8.233-14.595l.133-.055a8.735,8.735,0,0,0,3.558-2.689C301.3,587.13,296.789,583.751,294.582,586.67Z" transform="translate(-163.311 -349.854)"/>
    <path id="Path_860" data-name="Path 860" class="cls-9" d="M294.582,586.67a8.482,8.482,0,0,0-1.122,2.115c-.069.184-.138.4-.207.6a1.632,1.632,0,0,0-.391-.133,5.426,5.426,0,0,0-1.756-.152c0-.23.023-.46.032-.722.074-2.6-.234-6.219-2.712-4.689-2.377,1.48-.68,3.935.855,5.516.133.138.262.262.391.386-1.379,1.007-1.664,3.319-1.9,5.741s-2.3,5.057-3.65,6.573c-.133.152-.262.29-.386.418a4.955,4.955,0,0,0-3.963-1.021l-.184-.671c-1.1-3.985-3.4-10.89-6.321-12.411l.386-.487c1.241-1.627,2.639-4.041.575-4.657s-2.252,2.092-2.138,4.137a6.948,6.948,0,0,0,.06.722,3.048,3.048,0,0,0-2.165,1.053c-.1-.12-.2-.244-.317-.377-1.673-1.981-4.749-5.112-5.677-2.758-.864,2.206,1.839,5.056,3.742,6.739l.12.1c-1.278,5.185,4.293,9.405,7.3,11.253.133.087.262.165.386.239-4.137,4.877-6.7,14.025-6.7,14.025l11.612,2.11s7.69-6.633,6.707-12.871h.078c7.681-1.54,9.428-9.732,8.233-14.595l.133-.055a8.735,8.735,0,0,0,3.558-2.689C301.3,587.13,296.789,583.751,294.582,586.67Z" transform="translate(-163.311 -349.854)"/>
    <path id="Path_861" data-name="Path 861" class="cls-2" d="M272.342,592.426l-1.356,3.972a21.9,21.9,0,0,1-1.705-1.379c-1.9-1.664-4.6-4.532-3.742-6.739.919-2.372,4,.759,5.682,2.758C271.891,591.828,272.342,592.426,272.342,592.426Z" transform="translate(-164.146 -352.255)"/>
    <path id="Path_862" data-name="Path 862" class="cls-2" d="M284.885,587.792a19.633,19.633,0,0,1-1.319,1.554,20.345,20.345,0,0,1-.244-2.087c-.11-2.032.1-4.73,2.138-4.137S286.127,586.165,284.885,587.792Z" transform="translate(-173.83 -349.883)"/>
    <path id="Path_863" data-name="Path 863" class="cls-2" d="M320.218,588.806c-.046,1.305-.17,2.349-.17,2.349a17.248,17.248,0,0,1-1.692-1.512c-1.535-1.591-3.218-4.045-.85-5.516C319.983,582.587,320.286,586.2,320.218,588.806Z" transform="translate(-191.676 -350.271)"/>
    <path id="Path_864" data-name="Path 864" class="cls-2" d="M334.748,593.12a8.734,8.734,0,0,1-3.558,2.689,9.621,9.621,0,0,1-1.2.432L328.4,594a16.08,16.08,0,0,1,.662-2.179,8.334,8.334,0,0,1,1.122-2.115C332.39,586.772,336.895,590.151,334.748,593.12Z" transform="translate(-198.199 -352.875)"/>
    <path id="Path_865" data-name="Path 865" class="cls-9" d="M275.81,595.26c.671.791,1.122,1.379,1.122,1.379l-1.356,3.972a21.931,21.931,0,0,1-1.705-1.379,7.778,7.778,0,0,1,1.526-3.489Q275.6,595.494,275.81,595.26Z" transform="translate(-168.736 -356.486)"/>
    <path id="Path_866" data-name="Path 866" class="cls-9" d="M284.913,592.753a19.656,19.656,0,0,1-1.319,1.554,20.345,20.345,0,0,1-.244-2.087A2.7,2.7,0,0,1,284.913,592.753Z" transform="translate(-173.858 -354.844)"/>
    <path id="Path_867" data-name="Path 867" class="cls-2" d="M286.373,609.34,283,610.825a20.171,20.171,0,0,1-1.8-1.016c-3.544-2.179-10.669-7.663-5.893-14.131s8.762,5.13,10.329,10.8C286.121,608.177,286.373,609.34,286.373,609.34Z" transform="translate(-168.653 -355.682)"/>
    <path id="Path_868" data-name="Path 868" class="cls-9" d="M320.74,595.577a2.759,2.759,0,0,1,1.862-.837c-.046,1.306-.17,2.349-.17,2.349a17.243,17.243,0,0,1-1.692-1.512Z" transform="translate(-194.06 -356.205)"/>
    <path id="Path_869" data-name="Path 869" class="cls-9" d="M331.19,599.62a9.611,9.611,0,0,1-1.2.432l-1.6-2.243a16.084,16.084,0,0,1,.662-2.179C330.092,596.232,330.85,597.731,331.19,599.62Z" transform="translate(-198.199 -356.686)"/>
    <path id="Path_870" data-name="Path 870" class="cls-2" d="M308.293,614.6c-.184.037-.377.073-.565.1-11.3,1.719-3.728-4.381-3.728-4.381s.51-.46,1.2-1.232c1.379-1.508,3.415-4.137,3.65-6.573.354-3.677.763-7.1,5.089-6.091C318.181,597.422,318.99,612.463,308.293,614.6Z" transform="translate(-183.672 -357.021)"/>
    <rect id="Rectangle_397" data-name="Rectangle 397" class="cls-12" width="21.596" height="5.677" transform="translate(102.817 285.726)"/>
    <rect id="Rectangle_398" data-name="Rectangle 398" class="cls-12" width="28.215" height="19.817" transform="translate(99.384 267.269)"/>
    <rect id="Rectangle_399" data-name="Rectangle 399" class="cls-9" width="21.596" height="5.677" transform="translate(102.817 285.726)"/>
    <rect id="Rectangle_400" data-name="Rectangle 400" class="cls-9" width="28.215" height="19.817" transform="translate(99.384 267.269)"/>
    <rect id="Rectangle_401" data-name="Rectangle 401" class="cls-12" width="21.596" height="5.677" transform="translate(104.233 285.726)"/>
    <path id="Path_871" data-name="Path 871" class="cls-9" d="M294.446,621.42c.46,1.7.731,2.859.731,2.859l-3.37,1.485a20.163,20.163,0,0,1-1.8-1.016A8.6,8.6,0,0,1,294.446,621.42Z" transform="translate(-177.456 -370.621)"/>
    <path id="Path_872" data-name="Path 872" class="cls-9" d="M308.293,629.7c-.184.037-.377.073-.565.1-11.3,1.719-3.728-4.381-3.728-4.381s.51-.46,1.2-1.232A7.489,7.489,0,0,1,308.293,629.7Z" transform="translate(-183.672 -372.118)"/>
    <path id="Path_873" data-name="Path 873" class="cls-2" d="M276.29,639.7s6.33-22.653,15.2-15.675-3.609,17.748-3.609,17.748Z" transform="translate(-170.043 -371.305)"/>
    <circle id="Ellipse_195" data-name="Ellipse 195" class="cls-9" cx="0.708" cy="0.708" r="0.708" transform="translate(108.734 242.842)"/>
    <circle id="Ellipse_196" data-name="Ellipse 196" class="cls-9" cx="0.708" cy="0.708" r="0.708" transform="translate(108.674 246.152)"/>
    <circle id="Ellipse_197" data-name="Ellipse 197" class="cls-9" cx="0.708" cy="0.708" r="0.708" transform="translate(129.258 243.49)"/>
    <circle id="Ellipse_198" data-name="Ellipse 198" class="cls-9" cx="0.708" cy="0.708" r="0.708" transform="translate(112.696 260.466)"/>
    <circle id="Ellipse_199" data-name="Ellipse 199" class="cls-9" cx="0.708" cy="0.708" r="0.708" transform="translate(127.783 248.992)"/>
    <circle id="Ellipse_200" data-name="Ellipse 200" class="cls-9" cx="0.708" cy="0.708" r="0.708" transform="translate(120.446 256.329)"/>
    <circle id="Ellipse_201" data-name="Ellipse 201" class="cls-9" cx="0.708" cy="0.708" r="0.708" transform="translate(111.161 244.258)"/>
    <circle id="Ellipse_202" data-name="Ellipse 202" class="cls-9" cx="0.708" cy="0.708" r="0.708" transform="translate(127.309 245.618)"/>
    <circle id="Ellipse_203" data-name="Ellipse 203" class="cls-9" cx="0.708" cy="0.708" r="0.708" transform="translate(124.882 251.121)"/>
    <circle id="Ellipse_204" data-name="Ellipse 204" class="cls-9" cx="0.708" cy="0.708" r="0.708" transform="translate(117.431 259.938)"/>
    <circle id="Ellipse_205" data-name="Ellipse 205" class="cls-9" cx="0.708" cy="0.708" r="0.708" transform="translate(115.891 256.444)"/>
    <circle id="Ellipse_206" data-name="Ellipse 206" class="cls-9" cx="0.708" cy="0.708" r="0.708" transform="translate(112.223 248.579)"/>
    <rect id="Rectangle_402" data-name="Rectangle 402" class="cls-9" width="21.596" height="2.073" transform="translate(104.233 285.726)"/>
    <rect id="Rectangle_403" data-name="Rectangle 403" class="cls-12" width="28.215" height="19.817" transform="translate(100.804 267.269)"/>
    <circle id="Ellipse_207" data-name="Ellipse 207" class="cls-9" cx="0.708" cy="0.708" r="0.708" transform="translate(118.378 263.132)"/>
    <circle id="Ellipse_208" data-name="Ellipse 208" class="cls-9" cx="0.708" cy="0.708" r="0.708" transform="translate(114.116 264.02)"/>
  </g>
</svg>
